<svg width="347" height="480" viewBox="0 0 347 480" fill="none" xmlns="http://www.w3.org/2000/svg">
<g clip-path="url(#clip0_62_567)">
<rect width="347" height="480" rx="15" fill="black"/>
<g filter="url(#filter0_f_62_567)">
<ellipse cx="147.19" cy="483.864" rx="85.6074" ry="73.1362" fill="#FFAA86"/>
</g>
<g filter="url(#filter1_f_62_567)">
<ellipse cx="242.31" cy="355.347" rx="56.4375" ry="48.1938" fill="#FFAA86"/>
</g>
<g style="mix-blend-mode:overlay">
<path d="M107.375 459.465C100.048 459.485 93.6674 457.927 88.2326 454.789C82.7978 451.652 80.0977 447.968 80.1321 443.738C80.1665 439.509 82.9526 435.795 88.4906 432.598C94.0285 429.401 100.461 427.793 107.787 427.773C115.114 427.753 121.495 429.312 126.929 432.449C132.364 435.587 135.064 439.27 135.03 443.5C134.996 447.73 132.209 451.443 126.672 454.64C121.134 457.837 114.701 459.446 107.375 459.465ZM88.3874 443.5C88.4218 446.34 90.434 448.911 94.4241 451.215C98.4142 453.518 102.869 454.68 107.787 454.7C112.706 454.72 117.109 453.608 120.996 451.364C124.848 449.14 126.758 446.608 126.723 443.768C126.723 440.909 124.728 438.327 120.738 436.024C116.748 433.72 112.276 432.568 107.323 432.568C102.404 432.549 98.0186 433.651 94.1661 435.875C90.2792 438.119 88.353 440.66 88.3874 443.5ZM145.274 442.709L118.186 416.646L132.891 408.157L178.296 423.646L172.104 427.22L133.923 414.114L128.248 417.391L151.208 439.284L145.274 442.709ZM181.129 422.01L145.012 401.16L150.946 397.734L174.938 411.585L179.065 414.564L179.581 414.266L167.198 388.352L175.196 383.735L211.313 404.585L205.379 408.011L181.387 394.16L177.26 391.181L176.744 391.479L189.127 417.393L181.129 422.01ZM216.968 401.32L180.851 380.47L190.654 374.811L222.902 382.108L224.192 381.364L211.551 362.747L221.096 357.237L257.213 378.087L251.279 381.512L225.998 366.917L221.612 363.79L221.096 364.087L233.479 382.257L224.192 387.619L192.718 380.47L192.202 380.768L197.62 383.3L222.902 397.895L216.968 401.32ZM262.885 374.813L226.767 353.962L256.435 336.835L292.552 357.686L286.619 361.111L256.177 343.537L238.377 353.814L268.818 371.387L262.885 374.813Z" fill="white"/>
<g style="mix-blend-mode:multiply" opacity="0.2">
<path d="M163.349 456.094L153.175 450.288L93.0867 484.577L50.2879 460.154L50.2813 425.608H109.925L109.448 417.398L35.8936 417.398L35.887 478.563L50.2879 478.563L50.2813 471.77L93.0801 496.193L163.349 456.094Z" fill="white"/>
<path d="M163.343 455.841L153.168 450.035L93.0867 484.32L50.2879 459.897L50.288 425.355L109.919 425.355L109.448 417.141L35.8936 417.141V478.309L50.2813 478.309L50.2813 471.513L93.0801 495.936L163.343 455.841Z" fill="#FBFBFB"/>
<path d="M163.343 455.584L153.168 449.777L93.0801 484.066L50.2813 459.643L50.2879 425.097L109.919 425.097L109.448 416.883L35.8936 416.883L35.8936 478.052L50.2813 478.052L50.2813 471.256L93.0801 495.679L163.343 455.584Z" fill="#F7F7F7"/>
<path d="M163.349 455.33L153.168 449.52L93.0801 483.809L50.2813 459.386L50.2813 424.844L109.925 424.844L109.442 416.63L35.887 416.63L35.8936 477.795L50.2813 477.795L50.2879 471.002L93.0867 495.425L163.349 455.33Z" fill="#F2F2F2"/>
<path d="M163.349 455.073L153.168 449.263L93.0801 483.552L50.2879 459.133L50.2813 424.587L109.925 424.587L109.442 416.373L35.8936 416.377L35.887 477.542L50.2879 477.542L50.2879 470.745L93.0867 495.168L163.349 455.073Z" fill="#EEEEEE"/>
<path d="M163.349 454.816L153.175 449.01L93.0867 483.299L50.2879 458.876L50.2879 424.334L109.925 424.33L109.448 416.12L35.8936 416.12L35.887 477.285L50.2879 477.285L50.2813 470.492L93.0801 494.915L163.349 454.816Z" fill="#EAEAEA"/>
<path d="M163.343 454.563L153.168 448.757L93.0867 483.042L50.2879 458.619V424.077L109.919 424.077L109.448 415.863L35.8936 415.863V477.032L50.2813 477.032L50.2813 470.235L93.0801 494.658L163.343 454.563Z" fill="#E6E6E6"/>
<path d="M163.343 454.306L153.168 448.5L93.0801 482.789L50.2813 458.366L50.2879 423.82L109.925 423.824L109.442 415.61L35.8936 415.606V476.775L50.2813 476.775L50.2879 469.982L93.0801 494.401L163.343 454.306Z" fill="#E2E2E2"/>
<path d="M163.349 454.053L153.168 448.243L93.0801 482.532L50.2813 458.109L50.2813 423.567L109.925 423.567L109.442 415.353L35.887 415.353L35.8936 476.518L50.2879 476.521L50.2879 469.725L93.0867 494.148L163.349 454.053Z" fill="#DEDEDE"/>
<path d="M163.349 453.796L153.168 447.986L93.0801 482.275L50.2879 457.855L50.2813 423.31L109.925 423.31L109.448 415.099L35.8936 415.099L35.887 476.264L50.2879 476.264L50.2879 469.468L93.0867 493.891L163.349 453.796Z" fill="#D9D9D9"/>
<path d="M163.343 453.542L153.168 447.736L93.0867 482.021L50.2879 457.598L50.2879 423.056L109.919 423.056L109.448 414.842L35.8936 414.842L35.8936 476.011L50.2879 476.007L50.2813 469.214L93.0801 493.637L163.343 453.542Z" fill="#D5D5D5"/>
<path d="M163.343 453.285L153.168 447.479L93.0801 481.768L50.2813 457.345L50.2879 422.799L109.919 422.799L109.448 414.585L35.8936 414.585L35.8936 475.754H50.2813L50.2813 468.957L93.0801 493.38L163.343 453.285Z" fill="#D1D1D1"/>
<path d="M163.343 453.028L153.168 447.222L93.0801 481.511L50.2813 457.088L50.2879 422.542L109.925 422.546L109.442 414.332L35.8936 414.328L35.8936 475.497H50.2813L50.2879 468.704L93.0801 493.123L163.343 453.028Z" fill="#CDCDCD"/>
<path d="M163.349 452.775L153.168 446.965L93.0801 481.254L50.2813 456.831L50.2813 422.289L109.925 422.289L109.442 414.075L35.887 414.075L35.8936 475.24L50.2879 475.244L50.2879 468.447L93.0867 492.87L163.349 452.775Z" fill="#C9C9C9"/>
<path d="M163.349 452.518L153.175 446.712L93.0867 481.001L50.2879 456.578L50.2813 422.032L109.925 422.032L109.448 413.822L35.8936 413.822L35.887 474.987L50.288 474.987L50.2813 468.194L93.0801 492.617L163.349 452.518Z" fill="#C4C4C4"/>
<path d="M163.343 452.265L153.168 446.459L93.0867 480.744L50.2879 456.321L50.2879 421.779H109.919L109.448 413.565L35.8936 413.565L35.8936 474.733L50.2879 474.73L50.2813 467.937L93.0801 492.36L163.343 452.265Z" fill="#C0C0C0"/>
<path d="M163.343 452.008L153.168 446.202L93.0801 480.49L50.2813 456.067L50.2879 421.522L109.919 421.522L109.448 413.308H35.8936V474.476H50.2813L50.2813 467.68L93.0801 492.103L163.343 452.008Z" fill="#BCBCBC"/>
<path d="M163.349 451.754L153.168 445.944L93.0801 480.233L50.2813 455.81L50.2813 421.268L109.925 421.268L109.442 413.054L35.887 413.054L35.8936 474.219L50.2813 474.219L50.2879 467.427L93.0867 491.849L163.349 451.754Z" fill="#B8B8B8"/>
<path d="M163.349 451.497L153.168 445.687L93.0801 479.976L50.2813 455.553L50.2814 421.011L109.925 421.011L109.442 412.797L35.887 412.797L35.887 473.966L50.288 473.966L50.288 467.169L93.0867 491.592L163.349 451.497Z" fill="#B4B4B4"/>
<path d="M163.349 451.24L153.175 445.434L93.0867 479.723L50.2879 455.3L50.2813 420.754H109.925L109.448 412.544L35.8936 412.544L35.887 473.709L50.2879 473.709L50.2813 466.916L93.0801 491.339L163.349 451.24Z" fill="#B0B0B0"/>
<path d="M163.343 450.987L153.168 445.181L93.0867 479.466L50.2879 455.043L50.2879 420.501L109.919 420.501L109.448 412.287L35.8936 412.287L35.8936 473.456L50.2813 473.456L50.2813 466.659L93.0801 491.082L163.343 450.987Z" fill="#ABABAB"/>
<path d="M163.343 450.73L153.168 444.924L93.0801 479.213L50.2813 454.79L50.2879 420.244L109.919 420.244L109.448 412.03L35.8936 412.03L35.8936 473.199L50.2813 473.199L50.2813 466.402L93.0801 490.825L163.343 450.73Z" fill="#A7A7A7"/>
<path d="M163.349 450.477L153.168 444.667L93.0801 478.956L50.2813 454.533L50.2813 419.991L109.925 419.991L109.442 411.777L35.887 411.777L35.8936 472.942L50.2813 472.942L50.2879 466.149L93.0867 490.572L163.349 450.477Z" fill="#A3A3A3"/>
<path d="M163.349 450.22L153.168 444.41L93.0801 478.699L50.2879 454.28L50.2813 419.734L109.925 419.734L109.442 411.52L35.8936 411.523L35.887 472.688L50.2879 472.688L50.2879 465.892L93.0867 490.315L163.349 450.22Z" fill="#9F9F9F"/>
<path d="M163.349 449.963L153.175 444.157L93.0867 478.445L50.2879 454.022L50.2879 419.48L109.925 419.477L109.448 411.266L35.8936 411.266L35.887 472.431L50.2879 472.431L50.2813 465.639L93.0801 490.061L163.349 449.963Z" fill="#9B9B9B"/>
<path d="M163.343 449.709L153.168 443.903L93.0867 478.188L50.2879 453.765L50.2879 419.223L109.919 419.223L109.448 411.009L35.8936 411.009V472.178L50.2813 472.178L50.2813 465.381L93.0801 489.804L163.343 449.709Z" fill="#969696"/>
<path d="M163.343 449.452L153.168 443.646L93.0801 477.935L50.2813 453.512L50.2879 418.966L109.925 418.97L109.442 410.756L35.8936 410.752L35.8936 471.921L50.2813 471.921L50.2879 465.128L93.0801 489.547L163.343 449.452Z" fill="#929292"/>
<path d="M163.349 449.199L153.168 443.389L93.0801 477.678L50.2813 453.255L50.2813 418.713L109.925 418.713L109.442 410.499L35.887 410.499L35.8936 471.664L50.2879 471.668V464.871L93.0867 489.294L163.349 449.199Z" fill="#8E8E8E"/>
<path d="M163.349 448.942L153.168 443.132L93.0801 477.421L50.2879 453.002L50.2813 418.456L109.925 418.456L109.448 410.246L35.8936 410.246L35.887 471.411L50.2879 471.411L50.2879 464.614L93.0867 489.037L163.349 448.942Z" fill="#8A8A8A"/>
<path d="M163.343 448.689L153.168 442.883L93.0867 477.168L50.2879 452.745L50.2879 418.203L109.919 418.203L109.448 409.989H35.8936V471.157L50.2879 471.154L50.2813 464.361L93.0801 488.784L163.343 448.689Z" fill="#868686"/>
<path d="M163.343 448.432L153.168 442.626L93.0801 476.914L50.2813 452.492L50.2879 417.946L109.919 417.946L109.448 409.732L35.8936 409.732V470.9L50.2813 470.9L50.2813 464.104L93.0801 488.527L163.343 448.432Z" fill="#828282"/>
<path d="M163.343 448.175L153.168 442.369L93.0801 476.657L50.2813 452.235L50.2879 417.689L109.925 417.692L109.442 409.478L35.8936 409.475L35.8936 470.643L50.2813 470.643L50.2879 463.851L93.0801 488.27L163.343 448.175Z" fill="#7D7D7D"/>
<path d="M163.349 447.921L153.168 442.112L93.0801 476.4L50.2813 451.977L50.2813 417.435H109.925L109.442 409.221L35.887 409.221L35.8936 470.386L50.2879 470.39V463.594L93.0867 488.016L163.349 447.921Z" fill="#797979"/>
<path d="M163.349 447.664L153.175 441.858L93.0867 476.147L50.2879 451.724L50.2813 417.178L109.925 417.178L109.448 408.968L35.8936 408.968L35.887 470.133L50.2879 470.133L50.2879 463.337L93.0867 487.759L163.349 447.664Z" fill="#757575"/>
<path d="M163.343 447.411L153.168 441.605L93.0867 475.89L50.2879 451.467L50.2879 416.925L109.919 416.925L109.448 408.711L35.8936 408.711L35.8936 469.88L50.2879 469.876L50.2813 463.083L93.0801 487.506L163.343 447.411Z" fill="#717171"/>
<path d="M163.343 447.154L153.168 441.348L93.0801 475.637L50.2813 451.214L50.2879 416.668L109.919 416.668L109.448 408.454L35.8936 408.454L35.8936 469.623L50.2813 469.623L50.2813 462.826L93.0801 487.249L163.343 447.154Z" fill="#6D6D6D"/>
<path d="M163.343 446.897L153.168 441.091L93.0801 475.38L50.2813 450.957L50.2813 416.415L109.925 416.415L109.442 408.201L35.887 408.201L35.8936 469.366H50.2813L50.2879 462.573L93.0801 486.992L163.343 446.897Z" fill="#696969"/>
<path d="M163.349 446.644L153.168 440.834L93.0801 475.123L50.2813 450.7L50.2813 416.158L109.925 416.158L109.442 407.944L35.887 407.944L35.8936 469.109L50.2879 469.112L50.2879 462.316L93.0867 486.739L163.349 446.644Z" fill="#646464"/>
<path d="M163.349 446.387L153.175 440.581L93.0867 474.869L50.2879 450.447L50.2813 415.901L109.925 415.901L109.448 407.69L35.8936 407.69L35.887 468.855L50.2879 468.855L50.2813 462.063L93.0801 486.486L163.349 446.387Z" fill="#606060"/>
<path d="M163.343 446.133L153.168 440.327L93.0867 474.612L50.2879 450.189L50.2879 415.647L109.919 415.647L109.448 407.433L35.8936 407.433L35.8936 468.602L50.2813 468.602L50.2813 461.806L93.0801 486.228L163.343 446.133Z" fill="#5C5C5C"/>
<path d="M163.343 445.876L153.168 440.07L93.0801 474.359L50.2813 449.936L50.2879 415.39L109.919 415.39L109.448 407.176H35.8936V468.345H50.2813L50.2813 461.549L93.0801 485.971L163.343 445.876Z" fill="#585858"/>
<path d="M163.349 445.623L153.168 439.813L93.0801 474.102L50.2813 449.679L50.2813 415.137L109.925 415.137L109.442 406.923L35.887 406.923L35.8936 468.088L50.2813 468.088L50.2879 461.295L93.0867 485.718L163.349 445.623Z" fill="#545454"/>
<path d="M163.349 445.366L153.168 439.556L93.08 473.845L50.2879 449.426L50.2812 414.88L109.925 414.88L109.442 406.666L35.8869 406.666L35.8869 467.835L50.2879 467.835L50.2879 461.038L93.0866 485.461L163.349 445.366Z" fill="#4F4F4F"/>
<path d="M163.349 445.109L153.175 439.303L93.0867 473.592L50.2879 449.169V414.627L109.925 414.623L109.448 406.413L35.8936 406.413L35.887 467.578L50.2879 467.578L50.2813 460.785L93.0801 485.208L163.349 445.109Z" fill="#4B4B4B"/>
<path d="M163.343 444.856L153.168 439.05L93.0867 473.335L50.2879 448.912L50.2879 414.37L109.919 414.37L109.448 406.156L35.8936 406.156L35.8936 467.325L50.2813 467.324L50.2813 460.528L93.0801 484.951L163.343 444.856Z" fill="#474747"/>
<path d="M163.343 444.599L153.168 438.793L93.0801 473.081L50.2813 448.659L50.2879 414.113L109.925 414.116L109.448 405.899L35.8936 405.899L35.8936 467.067L50.2813 467.067L50.2879 460.275L93.0801 484.694L163.343 444.599Z" fill="#434343"/>
<path d="M163.349 444.346L153.168 438.536L93.0801 472.824L50.2813 448.402L50.2813 413.859L109.925 413.859L109.442 405.645L35.887 405.645L35.8936 466.81L50.2879 466.814V460.018L93.0867 484.441L163.349 444.346Z" fill="#3F3F3F"/>
<path d="M163.349 444.088L153.168 438.279L93.0801 472.567L50.2879 448.148L50.2813 413.602L109.925 413.602L109.448 405.392L35.8936 405.392L35.887 466.557L50.2879 466.557L50.2879 459.761L93.0867 484.183L163.349 444.088Z" fill="#3B3B3B"/>
<path d="M163.343 443.835L153.168 438.029L93.0867 472.314L50.2879 447.891L50.2879 413.349L109.919 413.349L109.448 405.135L35.8936 405.135L35.8936 466.304L50.2879 466.3L50.2813 459.507L93.0801 483.93L163.343 443.835Z" fill="#363636"/>
<path d="M163.343 443.578L153.168 437.772L93.0867 472.057L50.2879 447.634L50.2879 413.092L109.919 413.092L109.448 404.878L35.8936 404.878V466.047L50.2813 466.047V459.25L93.0801 483.673L163.343 443.578Z" fill="#323232"/>
<path d="M163.343 443.321L153.168 437.515L93.0801 471.804L50.2813 447.381L50.2879 412.835L109.925 412.839L109.442 404.625L35.8936 404.621L35.8936 465.79L50.2813 465.79L50.2879 458.997L93.0801 483.416L163.343 443.321Z" fill="#2E2E2E"/>
<path d="M163.349 443.068L153.168 437.258L93.0801 471.547L50.2813 447.124L50.2813 412.582L109.925 412.582L109.442 404.368H35.887L35.8936 465.533L50.2879 465.537L50.2879 458.74L93.0867 483.163L163.349 443.068Z" fill="#2A2A2A"/>
<path d="M163.349 442.811L153.175 437.005L93.0867 471.294L50.2879 446.871L50.2813 412.325L109.925 412.325L109.448 404.114L35.8936 404.114L35.887 465.279L50.2879 465.279L50.2879 458.483L93.0867 482.906L163.349 442.811Z" fill="#262626"/>
<path d="M163.343 442.558L153.168 436.751L93.0867 471.036L50.2879 446.614L50.2879 412.071L109.919 412.071L109.448 403.857H35.8936V465.026L50.2879 465.022L50.2813 458.23L93.0801 482.653L163.343 442.558Z" fill="#212121"/>
<path d="M163.343 442.301L153.168 436.494L93.0801 470.783L50.2813 446.36L50.2879 411.814L109.919 411.814L109.448 403.6L35.8936 403.6L35.8936 464.769L50.2813 464.769L50.2813 457.973L93.0801 482.396L163.343 442.301Z" fill="#1D1D1D"/>
<path d="M163.343 442.044L153.168 436.237L93.0801 470.526L50.2813 446.103L50.2813 411.561L109.925 411.561L109.442 403.347L35.887 403.347L35.8936 464.512H50.2813L50.2879 457.719L93.0801 482.138L163.343 442.044Z" fill="#191919"/>
<path d="M163.349 441.79L153.168 435.98L93.0801 470.269L50.2813 445.846L50.2813 411.304L109.925 411.304L109.442 403.09L35.887 403.09L35.8936 464.255L50.2879 464.259V457.462L93.0867 481.885L163.349 441.79Z" fill="#151515"/>
<path d="M163.349 441.533L153.175 435.727L93.0867 470.016L50.2879 445.593L50.2813 411.047L109.925 411.047L109.448 402.837L35.8936 402.837L35.887 464.002L50.2879 464.002L50.2813 457.209L93.0801 481.632L163.349 441.533Z" fill="#111111"/>
<path d="M163.343 441.28L153.168 435.474L93.0867 469.759L50.2879 445.336L50.2879 410.794L109.919 410.794L109.448 402.58L35.8936 402.58L35.8936 463.749L50.2813 463.749L50.2813 456.952L93.0801 481.375L163.343 441.28Z" fill="#0D0D0D"/>
<path d="M163.343 441.023L153.168 435.217L93.0801 469.506L50.2813 445.083L50.2879 410.537L109.919 410.537L109.448 402.323L35.8936 402.323V463.492L50.2813 463.492L50.2813 456.695L93.0801 481.118L163.343 441.023Z" fill="#080808"/>
<path d="M163.349 440.77L153.168 434.96L93.0801 469.249L50.2813 444.826L50.2813 410.284L109.925 410.284L109.442 402.069L35.887 402.069L35.8936 463.234L50.2813 463.234L50.2879 456.442L93.0867 480.865L163.349 440.77Z" fill="#040404"/>
<path d="M163.349 440.513L153.168 434.703L93.08 468.992L50.2879 444.572L50.2812 410.027L109.925 410.027L109.442 401.812L35.8869 401.812L35.8869 462.981L50.2879 462.981L50.2879 456.185L93.0866 480.608L163.349 440.513Z" fill="black"/>
</g>
<path d="M163.349 440.513L153.168 434.703L93.08 468.992L50.2879 444.572L50.2812 410.027L109.925 410.027L109.442 401.812L35.8869 401.812L35.8869 462.981L50.2879 462.981L50.2879 456.185L93.0866 480.608L163.349 440.513Z" fill="white"/>
</g>
<g style="mix-blend-mode:overlay">
<path d="M239.742 470.156C234.197 470.171 229.369 468.991 225.256 466.617C221.143 464.242 219.099 461.455 219.125 458.254C219.152 455.053 221.26 452.243 225.451 449.824C229.642 447.404 234.51 446.187 240.054 446.172C245.599 446.157 250.427 447.336 254.54 449.711C258.653 452.085 260.697 454.873 260.671 458.074C260.645 461.275 258.536 464.085 254.345 466.504C250.154 468.924 245.286 470.141 239.742 470.156ZM225.373 458.074C225.399 460.223 226.922 462.169 229.941 463.912C232.961 465.655 236.332 466.534 240.054 466.549C243.777 466.564 247.109 465.723 250.05 464.025C252.965 462.342 254.41 460.425 254.384 458.277C254.384 456.113 252.874 454.159 249.855 452.416C246.835 450.673 243.451 449.801 239.703 449.801C235.98 449.786 232.661 450.62 229.746 452.303C226.805 454.001 225.347 455.925 225.373 458.074ZM268.423 457.475L247.924 437.752L259.052 431.327L293.413 443.049L288.727 445.754L259.833 435.836L255.538 438.315L272.913 454.883L268.423 457.475ZM295.557 441.811L268.225 426.032L272.715 423.44L290.872 433.921L293.995 436.175L294.386 435.95L285.015 416.339L291.067 412.845L318.399 428.624L313.909 431.216L295.752 420.735L292.629 418.481L292.238 418.706L301.609 438.317L295.557 441.811ZM322.679 426.153L295.347 410.374L302.765 406.092L327.169 411.614L328.145 411.051L318.579 396.962L325.803 392.792L353.135 408.571L348.645 411.163L329.512 400.118L326.193 397.751L325.803 397.977L335.174 411.727L328.145 415.784L304.327 410.374L303.937 410.6L308.037 412.516L327.169 423.561L322.679 426.153ZM357.427 406.093L330.095 390.314L352.546 377.353L379.878 393.132L375.388 395.724L352.351 382.425L338.88 390.202L361.917 403.501L357.427 406.093Z" fill="#A5A5A5"/>
<g style="mix-blend-mode:multiply" opacity="0.2">
<path d="M284.069 467.672L276.369 463.278L230.896 489.227L198.507 470.745L198.502 444.601L243.639 444.601L243.278 438.388L187.614 438.388L187.609 484.676L198.508 484.676L198.502 479.535L230.891 498.018L284.069 467.672Z" fill="#A5A5A5"/>
<path d="M284.064 467.481L276.364 463.087L230.896 489.033L198.507 470.55L198.508 444.41L243.634 444.41L243.278 438.194L187.614 438.194V484.484L198.502 484.484L198.502 479.341L230.891 497.823L284.064 467.481Z" fill="#FBFBFB"/>
<path d="M284.064 467.286L276.364 462.892L230.891 488.841L198.502 470.358L198.508 444.215L243.634 444.215L243.278 437.999L187.614 437.999V484.29L198.502 484.29L198.502 479.146L230.891 497.629L284.064 467.286Z" fill="#F7F7F7"/>
<path d="M284.069 467.094L276.364 462.698L230.891 488.646L198.502 470.164L198.502 444.023L243.639 444.023L243.273 437.807L187.609 437.807L187.614 484.095L198.502 484.095L198.507 478.955L230.896 497.437L284.069 467.094Z" fill="#F2F2F2"/>
<path d="M284.069 466.9L276.364 462.503L230.891 488.452L198.507 469.972L198.502 443.829L243.639 443.829L243.273 437.613L187.614 437.616L187.609 483.903L198.508 483.903L198.508 478.76L230.896 497.243L284.069 466.9Z" fill="#EEEEEE"/>
<path d="M284.069 466.705L276.369 462.311L230.896 488.26L198.507 469.778L198.508 443.637L243.639 443.634L243.278 437.421L187.614 437.421L187.609 483.709L198.507 483.709L198.502 478.568L230.891 497.051L284.069 466.705Z" fill="#EAEAEA"/>
<path d="M284.064 466.514L276.364 462.12L230.896 488.066L198.507 469.583V443.443L243.634 443.443L243.278 437.227L187.614 437.227L187.614 483.517L198.502 483.517L198.502 478.374L230.891 496.856L284.064 466.514Z" fill="#E6E6E6"/>
<path d="M284.064 466.319L276.364 461.925L230.891 487.874L198.502 469.391L198.508 443.248L243.639 443.251L243.273 437.035L187.614 437.032L187.614 483.323L198.502 483.323L198.508 478.182L230.891 496.662L284.064 466.319Z" fill="#E2E2E2"/>
<path d="M284.069 466.128L276.364 461.731L230.891 487.68L198.502 469.197L198.502 443.057L243.639 443.057L243.273 436.841L187.609 436.841L187.614 483.128L198.507 483.131L198.507 477.988L230.896 496.47L284.069 466.128Z" fill="#DEDEDE"/>
<path d="M284.069 465.933L276.364 461.536L230.891 487.485L198.508 469.005L198.503 442.862L243.639 442.862L243.278 436.649H187.614L187.609 482.937L198.508 482.937L198.508 477.793L230.896 496.276L284.069 465.933Z" fill="#D9D9D9"/>
<path d="M284.064 465.741L276.364 461.347L230.896 487.293L198.508 468.811L198.508 442.67L243.634 442.67L243.278 436.454L187.614 436.454V482.745L198.508 482.742L198.503 477.602L230.891 496.084L284.064 465.741Z" fill="#D5D5D5"/>
<path d="M284.064 465.547L276.364 461.153L230.891 487.102L198.503 468.619L198.508 442.476L243.634 442.476L243.278 436.26L187.614 436.26L187.614 482.55L198.503 482.55L198.503 477.407L230.891 495.889L284.064 465.547Z" fill="#D1D1D1"/>
<path d="M284.064 465.352L276.364 460.958L230.891 486.907L198.503 468.425L198.508 442.281L243.639 442.284L243.273 436.068L187.614 436.065L187.614 482.356L198.503 482.356L198.508 477.215L230.891 495.695L284.064 465.352Z" fill="#CDCDCD"/>
<path d="M284.069 465.161L276.364 460.764L230.891 486.713L198.503 468.23V442.09L243.639 442.09L243.273 435.874L187.609 435.874L187.614 482.161L198.508 482.164L198.508 477.021L230.896 495.503L284.069 465.161Z" fill="#C9C9C9"/>
<path d="M284.069 464.966L276.369 460.572L230.896 486.521L198.507 468.038L198.502 441.895L243.639 441.895L243.278 435.682H187.614L187.609 481.97L198.508 481.97L198.502 476.829L230.891 495.312L284.069 464.966Z" fill="#C4C4C4"/>
<path d="M284.064 464.774L276.364 460.381L230.896 486.326L198.508 467.844L198.508 441.704L243.634 441.704L243.278 435.487H187.614L187.614 481.778L198.507 481.775L198.502 476.635L230.891 495.117L284.064 464.774Z" fill="#C0C0C0"/>
<path d="M284.064 464.58L276.364 460.186L230.891 486.135L198.502 467.652L198.508 441.509L243.634 441.509L243.278 435.293L187.614 435.293V481.583L198.502 481.583L198.502 476.44L230.891 494.923L284.064 464.58Z" fill="#BCBCBC"/>
<path d="M284.069 464.388L276.364 459.991L230.891 485.94L198.502 467.458L198.502 441.317L243.639 441.317L243.273 435.101H187.609L187.614 481.389L198.502 481.389L198.508 476.248L230.896 494.731L284.069 464.388Z" fill="#B8B8B8"/>
<path d="M284.069 464.194L276.364 459.797L230.891 485.746L198.502 467.263L198.502 441.123L243.639 441.123L243.273 434.907L187.609 434.907V481.197L198.508 481.197L198.508 476.054L230.896 494.536L284.069 464.194Z" fill="#B4B4B4"/>
<path d="M284.069 463.999L276.369 459.605L230.896 485.554L198.508 467.072L198.503 440.928H243.639L243.278 434.715L187.614 434.715L187.609 481.003L198.508 481.003L198.503 475.862L230.891 494.345L284.069 463.999Z" fill="#B0B0B0"/>
<path d="M284.064 463.808L276.364 459.414L230.896 485.36L198.507 466.877L198.507 440.737L243.634 440.737L243.278 434.521L187.614 434.521L187.614 480.811L198.502 480.811L198.502 475.668L230.891 494.15L284.064 463.808Z" fill="#ABABAB"/>
<path d="M284.064 463.613L276.364 459.219L230.891 485.168L198.502 466.685L198.508 440.542L243.634 440.542L243.278 434.326L187.614 434.326V480.617L198.502 480.617L198.502 475.473L230.891 493.956L284.064 463.613Z" fill="#A7A7A7"/>
<path d="M284.069 463.421L276.364 459.025L230.891 484.973L198.502 466.491L198.502 440.35L243.639 440.35L243.273 434.134H187.609L187.614 480.422L198.502 480.422L198.508 475.282L230.896 493.764L284.069 463.421Z" fill="#A3A3A3"/>
<path d="M284.069 463.227L276.364 458.83L230.891 484.779L198.508 466.299L198.503 440.156L243.639 440.156L243.273 433.94L187.614 433.943L187.609 480.23L198.508 480.23L198.508 475.087L230.896 493.57L284.069 463.227Z" fill="#9F9F9F"/>
<path d="M284.069 463.032L276.369 458.638L230.896 484.587L198.508 466.105L198.508 439.964L243.639 439.961L243.278 433.748L187.614 433.748L187.609 480.036L198.508 480.036L198.503 474.895L230.891 493.378L284.069 463.032Z" fill="#9B9B9B"/>
<path d="M284.064 462.841L276.364 458.447L230.896 484.393L198.508 465.91L198.507 439.77L243.634 439.77L243.278 433.554H187.614L187.614 479.844L198.502 479.844L198.502 474.701L230.891 493.183L284.064 462.841Z" fill="#969696"/>
<path d="M284.064 462.646L276.364 458.252L230.891 484.201L198.503 465.719L198.508 439.575L243.639 439.578L243.273 433.362L187.614 433.359L187.614 479.65L198.503 479.65L198.508 474.509L230.891 492.989L284.064 462.646Z" fill="#929292"/>
<path d="M284.069 462.454L276.364 458.058L230.891 484.006L198.502 465.524L198.502 439.384L243.639 439.383L243.273 433.167L187.609 433.167L187.614 479.455L198.507 479.458L198.507 474.315L230.896 492.797L284.069 462.454Z" fill="#8E8E8E"/>
<path d="M284.069 462.26L276.364 457.863L230.891 483.812L198.507 465.332L198.502 439.189L243.639 439.189L243.278 432.976L187.614 432.976L187.609 479.264L198.508 479.264L198.508 474.12L230.896 492.603L284.069 462.26Z" fill="#8A8A8A"/>
<path d="M284.064 462.068L276.364 457.674L230.896 483.62L198.507 465.138L198.508 438.997L243.634 438.997L243.278 432.781L187.614 432.781V479.072L198.508 479.069L198.502 473.928L230.891 492.411L284.064 462.068Z" fill="#868686"/>
<path d="M284.064 461.874L276.364 457.48L230.891 483.429L198.502 464.946L198.508 438.803L243.634 438.803L243.278 432.587L187.614 432.587V478.877L198.502 478.877L198.502 473.734L230.891 492.216L284.064 461.874Z" fill="#828282"/>
<path d="M284.064 461.679L276.364 457.285L230.891 483.234L198.502 464.752L198.507 438.608L243.639 438.611L243.273 432.395L187.614 432.392L187.614 478.683L198.502 478.683L198.508 473.542L230.891 492.022L284.064 461.679Z" fill="#7D7D7D"/>
<path d="M284.069 461.488L276.364 457.091L230.891 483.04L198.502 464.557L198.502 438.417L243.639 438.417L243.273 432.201L187.609 432.201L187.614 478.488L198.507 478.491V473.348L230.896 491.83L284.069 461.488Z" fill="#797979"/>
<path d="M284.069 461.293L276.369 456.899L230.896 482.848L198.508 464.365L198.502 438.222L243.639 438.222L243.278 432.009L187.614 432.009L187.609 478.297L198.508 478.297L198.508 473.153L230.896 491.636L284.069 461.293Z" fill="#757575"/>
<path d="M284.064 461.101L276.364 456.708L230.896 482.653L198.507 464.171L198.508 438.031L243.634 438.031L243.278 431.814L187.614 431.814V478.105L198.508 478.102L198.502 472.962L230.891 491.444L284.064 461.101Z" fill="#717171"/>
<path d="M284.064 460.907L276.364 456.513L230.891 482.462L198.503 463.979L198.508 437.836L243.634 437.836L243.278 431.62L187.614 431.62L187.614 477.91L198.503 477.91L198.503 472.767L230.891 491.25L284.064 460.907Z" fill="#6D6D6D"/>
<path d="M284.064 460.712L276.364 456.318L230.891 482.267L198.503 463.785L198.503 437.644L243.639 437.644L243.273 431.428L187.609 431.428L187.614 477.716L198.503 477.716L198.508 472.575L230.891 491.055L284.064 460.712Z" fill="#696969"/>
<path d="M284.069 460.521L276.364 456.124L230.891 482.073L198.503 463.59L198.503 437.45L243.639 437.45L243.273 431.234L187.609 431.234L187.614 477.521L198.508 477.524L198.508 472.381L230.896 490.863L284.069 460.521Z" fill="#646464"/>
<path d="M284.069 460.326L276.369 455.932L230.896 481.881L198.507 463.398L198.502 437.255L243.639 437.255L243.278 431.042H187.614L187.609 477.33L198.508 477.33L198.502 472.189L230.891 490.672L284.069 460.326Z" fill="#606060"/>
<path d="M284.064 460.134L276.364 455.741L230.896 481.686L198.507 463.204L198.508 437.064L243.634 437.064L243.278 430.847H187.614L187.614 477.138L198.502 477.138L198.502 471.995L230.891 490.477L284.064 460.134Z" fill="#5C5C5C"/>
<path d="M284.064 459.94L276.364 455.546L230.891 481.495L198.502 463.012L198.508 436.869L243.634 436.869L243.278 430.653L187.614 430.653V476.944L198.502 476.944L198.502 471.8L230.891 490.283L284.064 459.94Z" fill="#585858"/>
<path d="M284.069 459.748L276.364 455.352L230.891 481.3L198.502 462.818L198.502 436.677L243.639 436.677L243.273 430.461H187.609L187.614 476.749L198.502 476.749L198.508 471.609L230.896 490.091L284.069 459.748Z" fill="#545454"/>
<path d="M284.069 459.554L276.364 455.157L230.891 481.106L198.507 462.626L198.502 436.483L243.639 436.483L243.273 430.267L187.609 430.267V476.557L198.507 476.557L198.507 471.414L230.896 489.896L284.069 459.554Z" fill="#4F4F4F"/>
<path d="M284.069 459.359L276.369 454.965L230.896 480.914L198.507 462.432V436.291L243.639 436.288L243.278 430.075L187.614 430.075L187.609 476.363L198.508 476.363L198.502 471.222L230.891 489.705L284.069 459.359Z" fill="#4B4B4B"/>
<path d="M284.064 459.168L276.364 454.774L230.896 480.72L198.507 462.237L198.507 436.097L243.634 436.097L243.278 429.881L187.614 429.881L187.614 476.171L198.502 476.171L198.502 471.028L230.891 489.51L284.064 459.168Z" fill="#474747"/>
<path d="M284.064 458.973L276.364 454.579L230.891 480.528L198.502 462.045L198.508 435.902L243.639 435.905L243.278 429.686L187.614 429.686V475.977L198.502 475.977L198.507 470.836L230.891 489.316L284.064 458.973Z" fill="#434343"/>
<path d="M284.069 458.781L276.364 454.385L230.891 480.333L198.502 461.851L198.502 435.711L243.639 435.711L243.273 429.494L187.609 429.494L187.614 475.782L198.507 475.785L198.508 470.642L230.896 489.124L284.069 458.781Z" fill="#3F3F3F"/>
<path d="M284.069 458.587L276.364 454.19L230.891 480.139L198.508 461.659L198.503 435.516L243.639 435.516L243.278 429.303L187.614 429.303L187.609 475.591L198.508 475.591L198.508 470.447L230.896 488.93L284.069 458.587Z" fill="#3B3B3B"/>
<path d="M284.064 458.395L276.364 454.001L230.896 479.947L198.508 461.465L198.508 435.324L243.634 435.324L243.278 429.108L187.614 429.108L187.614 475.399L198.508 475.396L198.503 470.255L230.891 488.738L284.064 458.395Z" fill="#363636"/>
<path d="M284.064 458.201L276.364 453.807L230.896 479.753L198.508 461.27L198.508 435.13L243.634 435.13L243.278 428.914H187.614L187.614 475.204L198.503 475.204L198.503 470.061L230.891 488.543L284.064 458.201Z" fill="#323232"/>
<path d="M284.064 458.006L276.364 453.612L230.891 479.561L198.502 461.079L198.507 434.935L243.639 434.938L243.273 428.722L187.614 428.719L187.614 475.01L198.502 475.01L198.508 469.869L230.891 488.349L284.064 458.006Z" fill="#2E2E2E"/>
<path d="M284.069 457.815L276.364 453.418L230.891 479.367L198.502 460.884L198.502 434.744L243.639 434.744L243.273 428.528L187.609 428.528L187.614 474.815L198.507 474.818L198.507 469.675L230.896 488.157L284.069 457.815Z" fill="#2A2A2A"/>
<path d="M284.069 457.62L276.369 453.226L230.896 479.175L198.508 460.692L198.502 434.549L243.639 434.549L243.278 428.336H187.614L187.609 474.624L198.507 474.624L198.508 469.48L230.896 487.963L284.069 457.62Z" fill="#262626"/>
<path d="M284.064 457.428L276.364 453.034L230.896 478.98L198.507 460.498L198.508 434.357L243.634 434.357L243.278 428.141L187.614 428.141V474.432L198.508 474.429L198.502 469.289L230.891 487.771L284.064 457.428Z" fill="#212121"/>
<path d="M284.064 457.234L276.364 452.84L230.891 478.789L198.502 460.306L198.508 434.163L243.634 434.163L243.278 427.947L187.614 427.947L187.614 474.237L198.502 474.237L198.502 469.094L230.891 487.577L284.064 457.234Z" fill="#1D1D1D"/>
<path d="M284.064 457.039L276.364 452.645L230.891 478.594L198.502 460.112L198.502 433.971L243.639 433.971L243.273 427.755L187.609 427.755L187.614 474.043L198.502 474.043L198.508 468.902L230.891 487.382L284.064 457.039Z" fill="#191919"/>
<path d="M284.069 456.848L276.364 452.451L230.891 478.4L198.502 459.917L198.502 433.777L243.639 433.777L243.273 427.561L187.609 427.561L187.614 473.848L198.507 473.851V468.708L230.896 487.19L284.069 456.848Z" fill="#151515"/>
<path d="M284.069 456.653L276.369 452.259L230.896 478.208L198.507 459.725L198.502 433.582L243.639 433.582L243.278 427.369L187.614 427.369L187.609 473.657L198.507 473.657L198.502 468.516L230.891 486.999L284.069 456.653Z" fill="#111111"/>
<path d="M284.064 456.462L276.364 452.068L230.896 478.013L198.507 459.531L198.508 433.391L243.634 433.391L243.278 427.174L187.614 427.174V473.465L198.502 473.465L198.502 468.322L230.891 486.804L284.064 456.462Z" fill="#0D0D0D"/>
<path d="M284.064 456.267L276.364 451.873L230.891 477.822L198.502 459.339L198.508 433.196L243.634 433.196L243.278 426.98L187.614 426.98V473.27L198.502 473.27L198.502 468.127L230.891 486.61L284.064 456.267Z" fill="#080808"/>
<path d="M284.069 456.075L276.364 451.679L230.891 477.627L198.502 459.145L198.502 433.004L243.639 433.004L243.273 426.788L187.609 426.788L187.614 473.076L198.502 473.076L198.507 467.935L230.896 486.418L284.069 456.075Z" fill="#040404"/>
<path d="M284.069 455.881L276.364 451.484L230.891 477.433L198.507 458.953L198.502 432.81L243.639 432.81L243.273 426.594L187.609 426.594V472.884L198.507 472.884L198.507 467.741L230.896 486.223L284.069 455.881Z" fill="black"/>
</g>
<path d="M284.069 455.881L276.364 451.484L230.891 477.433L198.507 458.953L198.502 432.81L243.639 432.81L243.273 426.594L187.609 426.594V472.884L198.507 472.884L198.507 467.741L230.896 486.223L284.069 455.881Z" fill="#A5A5A5"/>
</g>
<g style="mix-blend-mode:overlay">
<path d="M134.476 375.036C128.932 375.051 124.103 373.872 119.99 371.497C115.877 369.123 113.834 366.335 113.86 363.135C113.886 359.934 115.995 357.124 120.185 354.704C124.376 352.285 129.244 351.068 134.789 351.052C140.333 351.037 145.162 352.217 149.275 354.591C153.388 356.966 155.431 359.753 155.405 362.954C155.379 366.155 153.271 368.965 149.08 371.385C144.889 373.804 140.021 375.021 134.476 375.036ZM120.107 362.954C120.133 365.103 121.656 367.049 124.676 368.792C127.695 370.536 131.066 371.415 134.789 371.43C138.511 371.445 141.843 370.603 144.785 368.905C147.7 367.222 149.145 365.306 149.119 363.157C149.119 360.993 147.609 359.04 144.589 357.296C141.57 355.553 138.186 354.682 134.437 354.682C130.715 354.667 127.396 355.501 124.481 357.184C121.539 358.882 120.081 360.805 120.107 362.954ZM163.158 362.356L142.658 342.632L153.786 336.208L188.147 347.929L183.462 350.634L154.567 340.716L150.272 343.196L167.648 359.764L163.158 362.356ZM190.292 346.691L162.959 330.913L167.45 328.32L185.606 338.802L188.73 341.056L189.12 340.831L179.749 321.22L185.801 317.726L213.134 333.505L208.643 336.097L190.487 325.615L187.363 323.361L186.973 323.587L196.344 343.198L190.292 346.691ZM217.413 331.034L190.081 315.255L197.5 310.972L221.904 316.495L222.88 315.931L213.313 301.843L220.537 297.673L247.869 313.452L243.379 316.044L224.246 304.999L220.927 302.632L220.537 302.857L229.908 316.608L222.88 320.665L199.062 315.255L198.671 315.481L202.771 317.397L221.904 328.442L217.413 331.034ZM252.161 310.974L224.829 295.195L247.281 282.234L274.613 298.013L270.123 300.605L247.085 287.306L233.614 295.082L256.652 308.382L252.161 310.974Z" fill="white"/>
<g style="mix-blend-mode:multiply" opacity="0.2">
<path d="M177.576 372.553L169.876 368.159L124.403 394.108L92.0145 375.625L92.0094 349.482L137.146 349.482L136.785 343.269L81.1213 343.269L81.1163 389.556L92.0145 389.556L92.0094 384.416L124.398 402.898L177.576 372.553Z" fill="white"/>
<path d="M177.571 372.361L169.871 367.967L124.403 393.913L92.0145 375.431L92.0145 349.29L137.141 349.29L136.785 343.074L81.1213 343.074V389.365L92.0094 389.365L92.0094 384.221L124.398 402.704L177.571 372.361Z" fill="#FBFBFB"/>
<path d="M177.571 372.167L169.871 367.773L124.398 393.722L92.0094 375.239L92.0145 349.096L137.141 349.096L136.785 342.88L81.1213 342.88V389.17L92.0094 389.17L92.0094 384.027L124.398 402.509L177.571 372.167Z" fill="#F7F7F7"/>
<path d="M177.576 371.975L169.871 367.578L124.398 393.527L92.0094 375.044L92.0094 348.904L137.146 348.904L136.78 342.688L81.1163 342.688L81.1213 388.976L92.0094 388.976L92.0145 383.835L124.403 402.318L177.576 371.975Z" fill="#F2F2F2"/>
<path d="M177.576 371.781L169.871 367.384L124.398 393.333L92.0145 374.853L92.0094 348.71L137.146 348.71L136.78 342.493L81.1213 342.496L81.1163 388.784L92.0145 388.784L92.0145 383.641L124.403 402.123L177.576 371.781Z" fill="#EEEEEE"/>
<path d="M177.576 371.586L169.876 367.192L124.403 393.141L92.0145 374.658L92.0145 348.518L137.146 348.515L136.785 342.302L81.1213 342.302L81.1163 388.59L92.0145 388.59L92.0094 383.449L124.398 401.931L177.576 371.586Z" fill="#EAEAEA"/>
<path d="M177.571 371.394L169.871 367L124.403 392.946L92.0145 374.464V348.323L137.141 348.323L136.785 342.107L81.1213 342.107L81.1213 388.398L92.0094 388.398L92.0094 383.255L124.398 401.737L177.571 371.394Z" fill="#E6E6E6"/>
<path d="M177.571 371.2L169.871 366.806L124.398 392.755L92.0094 374.272L92.0145 348.129L137.146 348.132L136.78 341.916L81.1213 341.913L81.1213 388.203L92.0094 388.203L92.0145 383.063L124.398 401.542L177.571 371.2Z" fill="#E2E2E2"/>
<path d="M177.576 371.008L169.871 366.611L124.398 392.56L92.0094 374.078L92.0094 347.937L137.146 347.937L136.78 341.721L81.1163 341.721L81.1213 388.009L92.0145 388.012L92.0144 382.868L124.403 401.351L177.576 371.008Z" fill="#DEDEDE"/>
<path d="M177.576 370.814L169.871 366.417L124.398 392.366L92.0146 373.886L92.0096 347.743L137.146 347.743L136.785 341.529H81.1214L81.1164 387.817L92.0146 387.817L92.0146 382.674L124.403 401.156L177.576 370.814Z" fill="#D9D9D9"/>
<path d="M177.571 370.622L169.871 366.228L124.403 392.174L92.0146 373.691L92.0146 347.551L137.141 347.551L136.785 341.335L81.1214 341.335V387.626L92.0146 387.623L92.0096 382.482L124.398 400.965L177.571 370.622Z" fill="#D5D5D5"/>
<path d="M177.571 370.427L169.871 366.034L124.398 391.982L92.0096 373.5L92.0146 347.357L137.141 347.357L136.785 341.14L81.1214 341.14L81.1214 387.431L92.0096 387.431L92.0096 382.288L124.398 400.77L177.571 370.427Z" fill="#D1D1D1"/>
<path d="M177.571 370.233L169.871 365.839L124.398 391.788L92.0096 373.305L92.0146 347.162L137.146 347.165L136.78 340.949L81.1214 340.946L81.1214 387.236L92.0096 387.236L92.0146 382.096L124.398 400.576L177.571 370.233Z" fill="#CDCDCD"/>
<path d="M177.576 370.041L169.871 365.645L124.398 391.593L92.0096 373.111V346.97L137.146 346.97L136.78 340.754L81.1164 340.754L81.1214 387.042L92.0146 387.045L92.0146 381.901L124.403 400.384L177.576 370.041Z" fill="#C9C9C9"/>
<path d="M177.576 369.847L169.876 365.453L124.403 391.402L92.0145 372.919L92.0094 346.776L137.146 346.776L136.785 340.563H81.1213L81.1163 386.85L92.0145 386.85L92.0094 381.71L124.398 400.192L177.576 369.847Z" fill="#C4C4C4"/>
<path d="M177.571 369.655L169.871 365.261L124.403 391.207L92.0145 372.725L92.0145 346.584L137.141 346.584L136.785 340.368H81.1213L81.1213 386.659L92.0145 386.656L92.0094 381.515L124.398 399.998L177.571 369.655Z" fill="#C0C0C0"/>
<path d="M177.571 369.461L169.871 365.067L124.398 391.015L92.0094 372.533L92.0145 346.39L137.141 346.39L136.785 340.173L81.1213 340.173V386.464L92.0094 386.464L92.0094 381.321L124.398 399.803L177.571 369.461Z" fill="#BCBCBC"/>
<path d="M177.576 369.269L169.871 364.872L124.398 390.821L92.0094 372.338L92.0095 346.198L137.146 346.198L136.78 339.982H81.1163L81.1213 386.27L92.0094 386.27L92.0145 381.129L124.403 399.612L177.576 369.269Z" fill="#B8B8B8"/>
<path d="M177.576 369.074L169.871 364.678L124.398 390.626L92.0096 372.144L92.0096 346.003L137.146 346.003L136.78 339.787L81.1164 339.787V386.078L92.0146 386.078L92.0146 380.935L124.403 399.417L177.576 369.074Z" fill="#B4B4B4"/>
<path d="M177.576 368.88L169.876 364.486L124.403 390.435L92.0146 371.952L92.0096 345.809H137.146L136.785 339.596L81.1214 339.596L81.1164 385.883L92.0146 385.883L92.0096 380.743L124.398 399.225L177.576 368.88Z" fill="#B0B0B0"/>
<path d="M177.571 368.688L169.871 364.294L124.403 390.24L92.0145 371.758L92.0145 345.617L137.141 345.617L136.785 339.401L81.1213 339.401L81.1213 385.692L92.0094 385.692L92.0094 380.548L124.398 399.031L177.571 368.688Z" fill="#ABABAB"/>
<path d="M177.571 368.494L169.871 364.1L124.398 390.048L92.0094 371.566L92.0145 345.423L137.141 345.423L136.785 339.207L81.1213 339.207V385.497L92.0094 385.497L92.0094 380.354L124.398 398.836L177.571 368.494Z" fill="#A7A7A7"/>
<path d="M177.576 368.302L169.871 363.905L124.398 389.854L92.0094 371.371L92.0095 345.231L137.146 345.231L136.78 339.015H81.1163L81.1213 385.303L92.0094 385.303L92.0145 380.162L124.403 398.645L177.576 368.302Z" fill="#A3A3A3"/>
<path d="M177.576 368.108L169.871 363.711L124.398 389.659L92.0146 371.18L92.0096 345.037L137.146 345.037L136.78 338.82L81.1214 338.823L81.1164 385.111L92.0146 385.111L92.0146 379.968L124.403 398.45L177.576 368.108Z" fill="#9F9F9F"/>
<path d="M177.576 367.913L169.876 363.519L124.403 389.468L92.0146 370.985L92.0146 344.845L137.146 344.842L136.785 338.629L81.1214 338.629L81.1164 384.916L92.0146 384.916L92.0096 379.776L124.398 398.258L177.576 367.913Z" fill="#9B9B9B"/>
<path d="M177.571 367.721L169.871 363.327L124.403 389.273L92.0145 370.791L92.0145 344.65L137.141 344.65L136.785 338.434H81.1213L81.1213 384.725L92.0094 384.725L92.0094 379.581L124.398 398.064L177.571 367.721Z" fill="#969696"/>
<path d="M177.571 367.527L169.871 363.133L124.398 389.082L92.0096 370.599L92.0146 344.456L137.146 344.459L136.78 338.243L81.1214 338.24L81.1214 384.53L92.0096 384.53L92.0146 379.39L124.398 397.869L177.571 367.527Z" fill="#929292"/>
<path d="M177.576 367.335L169.871 362.938L124.398 388.887L92.0094 370.404L92.0094 344.264L137.146 344.264L136.78 338.048L81.1163 338.048L81.1213 384.336L92.0145 384.339L92.0145 379.195L124.403 397.678L177.576 367.335Z" fill="#8E8E8E"/>
<path d="M177.576 367.141L169.871 362.744L124.398 388.693L92.0145 370.213L92.0094 344.07L137.146 344.07L136.785 337.856L81.1213 337.856L81.1163 384.144L92.0145 384.144L92.0145 379.001L124.403 397.483L177.576 367.141Z" fill="#8A8A8A"/>
<path d="M177.571 366.949L169.871 362.555L124.403 388.501L92.0145 370.018L92.0145 343.878L137.141 343.878L136.785 337.662L81.1213 337.662V383.952L92.0145 383.95L92.0094 378.809L124.398 397.292L177.571 366.949Z" fill="#868686"/>
<path d="M177.571 366.754L169.871 362.361L124.398 388.309L92.0094 369.827L92.0145 343.683L137.141 343.684L136.785 337.467L81.1213 337.467V383.758L92.0095 383.758L92.0094 378.615L124.398 397.097L177.571 366.754Z" fill="#828282"/>
<path d="M177.571 366.56L169.871 362.166L124.398 388.115L92.0094 369.632L92.0145 343.489L137.146 343.492L136.78 337.276L81.1213 337.273L81.1213 383.563L92.0094 383.563L92.0145 378.423L124.398 396.902L177.571 366.56Z" fill="#7D7D7D"/>
<path d="M177.576 366.368L169.871 361.971L124.398 387.92L92.0094 369.438L92.0094 343.297L137.146 343.297L136.78 337.081L81.1163 337.081L81.1213 383.369L92.0145 383.372V378.228L124.403 396.711L177.576 366.368Z" fill="#797979"/>
<path d="M177.576 366.174L169.876 361.78L124.403 387.729L92.0145 369.246L92.0094 343.103L137.146 343.103L136.785 336.89L81.1213 336.89L81.1163 383.177L92.0145 383.177L92.0145 378.034L124.403 396.516L177.576 366.174Z" fill="#757575"/>
<path d="M177.571 365.982L169.871 361.588L124.403 387.534L92.0145 369.052L92.0145 342.911L137.141 342.911L136.785 336.695L81.1213 336.695V382.986L92.0145 382.983L92.0094 377.842L124.398 396.325L177.571 365.982Z" fill="#717171"/>
<path d="M177.571 365.788L169.871 361.394L124.398 387.342L92.0096 368.86L92.0146 342.717L137.141 342.717L136.785 336.5L81.1214 336.5L81.1214 382.791L92.0096 382.791L92.0096 377.648L124.398 396.13L177.571 365.788Z" fill="#6D6D6D"/>
<path d="M177.571 365.593L169.871 361.199L124.398 387.148L92.0096 368.665L92.0096 342.525L137.146 342.525L136.78 336.309L81.1164 336.309L81.1214 382.597L92.0096 382.597L92.0146 377.456L124.398 395.936L177.571 365.593Z" fill="#696969"/>
<path d="M177.576 365.401L169.871 361.005L124.398 386.953L92.0096 368.471L92.0096 342.33L137.146 342.33L136.78 336.114L81.1164 336.114L81.1214 382.402L92.0146 382.405L92.0146 377.261L124.403 395.744L177.576 365.401Z" fill="#646464"/>
<path d="M177.576 365.207L169.876 360.813L124.403 386.762L92.0145 368.279L92.0094 342.136L137.146 342.136L136.785 335.923H81.1213L81.1163 382.21L92.0145 382.21L92.0094 377.07L124.398 395.552L177.576 365.207Z" fill="#606060"/>
<path d="M177.571 365.015L169.871 360.621L124.403 386.567L92.0145 368.085L92.0145 341.944L137.141 341.944L136.785 335.728H81.1213L81.1213 382.019L92.0094 382.019L92.0094 376.875L124.398 395.358L177.571 365.015Z" fill="#5C5C5C"/>
<path d="M177.571 364.821L169.871 360.427L124.398 386.375L92.0094 367.893L92.0145 341.75L137.141 341.75L136.785 335.534L81.1213 335.534V381.824L92.0094 381.824L92.0094 376.681L124.398 395.163L177.571 364.821Z" fill="#585858"/>
<path d="M177.576 364.629L169.871 360.232L124.398 386.181L92.0094 367.698L92.0095 341.558L137.146 341.558L136.78 335.342H81.1163L81.1213 381.63L92.0094 381.63L92.0145 376.489L124.403 394.972L177.576 364.629Z" fill="#545454"/>
<path d="M177.576 364.434L169.871 360.038L124.398 385.986L92.0145 367.507L92.0095 341.363L137.146 341.363L136.78 335.147L81.1163 335.147V381.438L92.0145 381.438L92.0145 376.295L124.403 394.777L177.576 364.434Z" fill="#4F4F4F"/>
<path d="M177.576 364.24L169.876 359.846L124.403 385.795L92.0145 367.312V341.172L137.146 341.169L136.785 334.956L81.1213 334.956L81.1163 381.244L92.0145 381.244L92.0094 376.103L124.398 394.585L177.576 364.24Z" fill="#4B4B4B"/>
<path d="M177.571 364.048L169.871 359.654L124.403 385.6L92.0145 367.118L92.0145 340.977L137.141 340.977L136.785 334.761L81.1213 334.761L81.1213 381.052L92.0094 381.052L92.0094 375.908L124.398 394.391L177.571 364.048Z" fill="#474747"/>
<path d="M177.571 363.854L169.871 359.46L124.398 385.409L92.0094 366.926L92.0145 340.783L137.146 340.786L136.785 334.567L81.1213 334.567V380.857L92.0094 380.857L92.0145 375.717L124.398 394.196L177.571 363.854Z" fill="#434343"/>
<path d="M177.576 363.662L169.871 359.265L124.398 385.214L92.0094 366.732L92.0095 340.591L137.146 340.591L136.78 334.375L81.1163 334.375L81.1213 380.663L92.0145 380.666L92.0145 375.522L124.403 394.005L177.576 363.662Z" fill="#3F3F3F"/>
<path d="M177.576 363.468L169.871 359.071L124.398 385.02L92.0146 366.54L92.0096 340.397L137.146 340.397L136.785 334.183L81.1214 334.183L81.1164 380.471L92.0146 380.471L92.0146 375.328L124.403 393.81L177.576 363.468Z" fill="#3B3B3B"/>
<path d="M177.571 363.276L169.871 358.882L124.403 384.828L92.0146 366.345L92.0146 340.205L137.141 340.205L136.785 333.989L81.1214 333.989L81.1214 380.279L92.0146 380.277L92.0096 375.136L124.398 393.618L177.571 363.276Z" fill="#363636"/>
<path d="M177.571 363.081L169.871 358.687L124.403 384.633L92.0146 366.151L92.0146 340.01L137.141 340.01L136.785 333.794H81.1214L81.1214 380.085L92.0096 380.085L92.0096 374.942L124.398 393.424L177.571 363.081Z" fill="#323232"/>
<path d="M177.571 362.887L169.871 358.493L124.398 384.442L92.0094 365.959L92.0145 339.816L137.146 339.819L136.78 333.603L81.1213 333.6L81.1213 379.89L92.0094 379.89L92.0145 374.75L124.398 393.229L177.571 362.887Z" fill="#2E2E2E"/>
<path d="M177.576 362.695L169.871 358.298L124.398 384.247L92.0094 365.765L92.0094 339.624L137.146 339.624L136.78 333.408L81.1163 333.408L81.1213 379.696L92.0145 379.699L92.0144 374.555L124.403 393.038L177.576 362.695Z" fill="#2A2A2A"/>
<path d="M177.576 362.501L169.876 358.107L124.403 384.055L92.0145 365.573L92.0094 339.43L137.146 339.43L136.785 333.216H81.1213L81.1163 379.504L92.0145 379.504L92.0145 374.361L124.403 392.843L177.576 362.501Z" fill="#262626"/>
<path d="M177.571 362.309L169.871 357.915L124.403 383.861L92.0145 365.378L92.0145 339.238L137.141 339.238L136.785 333.022L81.1213 333.022V379.313L92.0145 379.31L92.0094 374.169L124.398 392.652L177.571 362.309Z" fill="#212121"/>
<path d="M177.571 362.114L169.871 357.721L124.398 383.669L92.0094 365.187L92.0145 339.044L137.141 339.044L136.785 332.827L81.1213 332.827L81.1213 379.118L92.0094 379.118L92.0094 373.975L124.398 392.457L177.571 362.114Z" fill="#1D1D1D"/>
<path d="M177.571 361.92L169.871 357.526L124.398 383.475L92.0094 364.992L92.0094 338.852L137.146 338.852L136.78 332.636L81.1163 332.636L81.1213 378.923L92.0094 378.923L92.0145 373.783L124.398 392.263L177.571 361.92Z" fill="#191919"/>
<path d="M177.576 361.728L169.871 357.332L124.398 383.28L92.0094 364.798L92.0094 338.657L137.146 338.657L136.78 332.441L81.1163 332.441L81.1213 378.729L92.0145 378.732V373.588L124.403 392.071L177.576 361.728Z" fill="#151515"/>
<path d="M177.576 361.534L169.876 357.14L124.403 383.089L92.0145 364.606L92.0094 338.463L137.146 338.463L136.785 332.25L81.1213 332.25L81.1163 378.537L92.0145 378.537L92.0094 373.397L124.398 391.879L177.576 361.534Z" fill="#111111"/>
<path d="M177.571 361.342L169.871 356.948L124.403 382.894L92.0145 364.412L92.0145 338.271L137.141 338.271L136.785 332.055L81.1213 332.055V378.346L92.0094 378.346L92.0094 373.202L124.398 391.685L177.571 361.342Z" fill="#0D0D0D"/>
<path d="M177.571 361.148L169.871 356.754L124.398 382.702L92.0094 364.22L92.0145 338.077L137.141 338.077L136.785 331.86L81.1213 331.86V378.151L92.0094 378.151L92.0094 373.008L124.398 391.49L177.571 361.148Z" fill="#080808"/>
<path d="M177.576 360.956L169.871 356.559L124.398 382.508L92.0094 364.025L92.0094 337.885L137.146 337.885L136.78 331.669L81.1163 331.669L81.1213 377.957L92.0094 377.957L92.0145 372.816L124.403 391.299L177.576 360.956Z" fill="#040404"/>
<path d="M177.576 360.761L169.871 356.365L124.398 382.313L92.0145 363.834L92.0095 337.69L137.146 337.69L136.78 331.474L81.1163 331.474V377.765L92.0145 377.765L92.0145 372.622L124.403 391.104L177.576 360.761Z" fill="black"/>
</g>
<path d="M177.576 360.761L169.871 356.365L124.398 382.313L92.0145 363.834L92.0095 337.69L137.146 337.69L136.78 331.474L81.1163 331.474V377.765L92.0145 377.765L92.0145 372.622L124.403 391.104L177.576 360.761Z" fill="white"/>
</g>
</g>
<defs>
<filter id="filter0_f_62_567" x="-44.1054" y="305.039" width="382.591" height="357.649" filterUnits="userSpaceOnUse" color-interpolation-filters="sRGB">
<feFlood flood-opacity="0" result="BackgroundImageFix"/>
<feBlend mode="normal" in="SourceGraphic" in2="BackgroundImageFix" result="shape"/>
<feGaussianBlur stdDeviation="52.8441" result="effect1_foregroundBlur_62_567"/>
</filter>
<filter id="filter1_f_62_567" x="80.184" y="201.465" width="324.251" height="307.764" filterUnits="userSpaceOnUse" color-interpolation-filters="sRGB">
<feFlood flood-opacity="0" result="BackgroundImageFix"/>
<feBlend mode="normal" in="SourceGraphic" in2="BackgroundImageFix" result="shape"/>
<feGaussianBlur stdDeviation="52.8441" result="effect1_foregroundBlur_62_567"/>
</filter>
<clipPath id="clip0_62_567">
<rect width="347" height="480" rx="15" fill="white"/>
</clipPath>
</defs>
</svg>
