<svg width="1280" height="306" viewBox="0 0 1280 306" fill="none" xmlns="http://www.w3.org/2000/svg">
<g clip-path="url(#clip0_1_215)">
<rect width="1280" height="306" rx="15" fill="black"/>
<g filter="url(#filter0_f_1_215)">
<ellipse cx="957.5" cy="331" rx="202.5" ry="173" fill="#FFAA86"/>
</g>
<g filter="url(#filter1_f_1_215)">
<ellipse cx="1182.5" cy="27" rx="133.5" ry="114" fill="#FFAA86"/>
</g>
<g style="mix-blend-mode:overlay">
<path d="M862.599 272.872C845.268 272.919 830.175 269.231 817.319 261.81C804.464 254.388 798.077 245.675 798.158 235.67C798.239 225.665 804.83 216.881 817.93 209.319C831.029 201.756 846.245 197.952 863.575 197.905C880.906 197.858 895.999 201.545 908.855 208.966C921.711 216.388 928.098 225.101 928.016 235.106C927.935 245.111 921.344 253.895 908.245 261.458C895.145 269.02 879.93 272.825 862.599 272.872ZM817.686 235.106C817.767 241.823 822.527 247.906 831.965 253.355C841.403 258.804 851.94 261.552 863.575 261.599C875.211 261.645 885.625 259.015 894.819 253.707C903.932 248.446 908.448 242.457 908.367 235.74C908.367 228.977 903.648 222.87 894.209 217.421C884.771 211.973 874.193 209.248 862.477 209.248C850.842 209.201 840.468 211.808 831.355 217.069C822.161 222.377 817.604 228.389 817.686 235.106ZM952.248 233.236L888.174 171.585L922.957 151.505L1030.36 188.143L1015.71 196.598L925.398 165.596L911.973 173.347L966.284 225.133L952.248 233.236ZM1037.06 184.273L951.629 134.953L965.664 126.85L1022.42 159.613L1032.18 166.659L1033.4 165.954L1004.11 104.656L1023.03 93.7347L1108.46 143.055L1094.42 151.158L1037.67 118.395L1027.91 111.349L1026.69 112.054L1055.98 173.352L1037.06 184.273ZM1121.84 135.332L1036.4 86.0119L1059.59 72.6249L1135.87 89.8871L1138.92 88.1256L1109.02 44.0894L1131.6 31.0547L1217.03 80.3753L1203 88.4779L1143.2 53.9536L1132.82 46.5555L1131.6 47.26L1160.89 90.2394L1138.92 102.922L1064.47 86.0119L1063.25 86.7165L1076.07 92.7054L1135.87 127.23L1121.84 135.332ZM1230.45 72.6304L1145.02 23.3099L1215.19 -17.2034L1300.63 32.1171L1286.59 40.2198L1214.58 -1.35041L1172.48 22.9576L1244.48 64.5277L1230.45 72.6304Z" fill="white"/>
<g style="mix-blend-mode:multiply" opacity="0.2">
<path d="M991.269 265.312L967.479 251.578L826.982 332.686L726.911 274.915L726.896 193.199H866.354L865.239 173.778L693.255 173.778L693.239 318.46L726.911 318.46L726.896 302.392L826.967 360.163L991.269 265.312Z" fill="white"/>
<path d="M991.254 264.713L967.463 250.979L826.983 332.078L726.911 274.307L726.911 192.6L866.339 192.6L865.239 173.17L693.255 173.17V317.861L726.896 317.861L726.896 301.784L826.967 359.555L991.254 264.713Z" fill="#FBFBFB"/>
<path d="M991.254 264.105L967.463 250.371L826.967 331.479L726.896 273.708L726.911 191.991L866.339 191.991L865.239 172.562L693.255 172.562V317.253L726.896 317.253L726.896 301.176L826.967 358.947L991.254 264.105Z" fill="#F7F7F7"/>
<path d="M991.269 263.506L967.463 249.763L826.967 330.871L726.896 273.1L726.896 191.392L866.354 191.392L865.224 171.962L693.239 171.962L693.255 316.645L726.896 316.645L726.911 300.577L826.983 358.348L991.269 263.506Z" fill="#F2F2F2"/>
<path d="M991.269 262.898L967.463 249.155L826.967 330.263L726.911 272.501L726.896 190.784L866.354 190.784L865.224 171.355L693.255 171.364L693.239 316.046L726.911 316.046L726.911 299.969L826.983 357.74L991.269 262.898Z" fill="#EEEEEE"/>
<path d="M991.269 262.29L967.479 248.556L826.982 329.664L726.911 271.893L726.911 190.185L866.354 190.176L865.239 170.755H693.255L693.239 315.438L726.911 315.438L726.896 299.37L826.967 357.141L991.269 262.29Z" fill="#EAEAEA"/>
<path d="M991.254 261.691L967.463 247.956L826.982 329.056L726.911 271.285L726.911 189.577L866.339 189.577L865.239 170.147L693.255 170.147L693.255 314.839L726.896 314.839V298.762L826.967 356.533L991.254 261.691Z" fill="#E6E6E6"/>
<path d="M991.254 261.083L967.463 247.348L826.967 328.457L726.896 270.686L726.911 188.969L866.354 188.978L865.224 169.548L693.255 169.539V314.231L726.896 314.231L726.911 298.163L826.967 355.925L991.254 261.083Z" fill="#E2E2E2"/>
<path d="M991.269 260.484L967.463 246.74L826.967 327.849L726.896 270.078L726.896 188.37H866.354L865.224 168.94L693.239 168.94L693.255 313.623L726.911 313.632L726.911 297.555L826.983 355.326L991.269 260.484Z" fill="#DEDEDE"/>
<path d="M991.269 259.876L967.463 246.132L826.967 327.241L726.911 269.479L726.896 187.762L866.354 187.762L865.239 168.341L693.255 168.341L693.239 313.024L726.911 313.024L726.911 296.947L826.983 354.718L991.269 259.876Z" fill="#D9D9D9"/>
<path d="M991.254 259.276L967.463 245.542L826.983 326.642L726.911 268.871L726.911 187.163L866.339 187.163L865.239 167.733L693.255 167.733V312.425L726.911 312.416L726.896 296.348L826.967 354.119L991.254 259.276Z" fill="#D5D5D5"/>
<path d="M991.254 258.668L967.463 244.934L826.967 326.043L726.896 268.272L726.911 186.555L866.339 186.555L865.239 167.125H693.255L693.255 311.817L726.896 311.817L726.896 295.74L826.967 353.511L991.254 258.668Z" fill="#D1D1D1"/>
<path d="M991.254 258.06L967.463 244.326L826.967 325.435L726.896 267.664L726.911 185.947L866.354 185.956L865.224 166.526L693.255 166.517L693.255 311.209L726.896 311.209L726.911 295.141L826.967 352.903L991.254 258.06Z" fill="#CDCDCD"/>
<path d="M991.269 257.461L967.463 243.718L826.967 324.827L726.896 267.055L726.896 185.348L866.354 185.348L865.224 165.918L693.239 165.918L693.255 310.601L726.911 310.61L726.911 294.533L826.983 352.304L991.269 257.461Z" fill="#C9C9C9"/>
<path d="M991.269 256.853L967.479 243.119L826.983 324.228L726.911 266.456L726.896 184.74H866.354L865.239 165.319L693.255 165.319L693.239 310.002H726.911L726.896 293.934L826.967 351.705L991.269 256.853Z" fill="#C4C4C4"/>
<path d="M991.254 256.254L967.463 242.52L826.982 323.619L726.911 265.848V184.141L866.339 184.141L865.239 164.711L693.255 164.711L693.255 309.402L726.911 309.394L726.896 293.326L826.967 351.097L991.254 256.254Z" fill="#C0C0C0"/>
<path d="M991.254 255.646L967.463 241.912L826.967 323.02L726.896 265.249L726.911 183.533L866.339 183.533L865.239 164.103L693.255 164.103V308.794L726.896 308.794L726.896 292.718L826.967 350.489L991.254 255.646Z" fill="#BCBCBC"/>
<path d="M991.269 255.047L967.463 241.304L826.967 322.412L726.896 264.641L726.896 182.934L866.354 182.934L865.224 163.504L693.239 163.504L693.255 308.186L726.896 308.186L726.911 292.119L826.983 349.89L991.269 255.047Z" fill="#B8B8B8"/>
<path d="M991.269 254.439L967.463 240.696L826.967 321.804L726.896 264.033L726.896 182.326L866.354 182.326L865.224 162.896L693.239 162.896V307.587L726.911 307.587L726.911 291.51L826.983 349.282L991.269 254.439Z" fill="#B4B4B4"/>
<path d="M991.269 253.831L967.479 240.097L826.983 321.205L726.911 263.434L726.896 181.718H866.354L865.239 162.297L693.255 162.297L693.239 306.979L726.911 306.979L726.896 290.911L826.967 348.683L991.269 253.831Z" fill="#B0B0B0"/>
<path d="M991.254 253.232L967.463 239.498L826.983 320.597L726.911 262.826L726.911 181.119L866.339 181.119L865.239 161.689L693.255 161.689L693.255 306.38L726.896 306.38L726.896 290.303L826.967 348.075L991.254 253.232Z" fill="#ABABAB"/>
<path d="M991.254 252.624L967.463 238.89L826.967 319.998L726.896 262.227L726.911 180.511L866.339 180.511L865.239 161.081L693.255 161.081V305.772L726.896 305.772L726.896 289.695L826.967 347.467L991.254 252.624Z" fill="#A7A7A7"/>
<path d="M991.269 252.025L967.463 238.282L826.967 319.39L726.896 261.619L726.896 179.912L866.354 179.912L865.224 160.482L693.239 160.482L693.255 305.164L726.896 305.164L726.911 289.096L826.983 346.868L991.269 252.025Z" fill="#A3A3A3"/>
<path d="M991.269 251.417L967.463 237.674L826.967 318.782L726.911 261.02L726.896 179.304L866.354 179.304L865.224 159.874L693.255 159.883L693.239 304.565L726.911 304.565L726.911 288.488L826.983 346.259L991.269 251.417Z" fill="#9F9F9F"/>
<path d="M991.269 250.809L967.479 237.075L826.983 318.183L726.911 260.412L726.911 178.704L866.354 178.695L865.239 159.275H693.255L693.239 303.957L726.911 303.957L726.896 287.889L826.967 345.66L991.269 250.809Z" fill="#9B9B9B"/>
<path d="M991.254 250.21L967.463 236.475L826.982 317.575L726.911 259.804L726.911 178.096H866.339L865.239 158.666L693.255 158.666L693.255 303.358L726.896 303.358L726.896 287.281L826.967 345.052L991.254 250.21Z" fill="#969696"/>
<path d="M991.254 249.602L967.463 235.868L826.967 316.976L726.896 259.205L726.911 177.488L866.354 177.497L865.224 158.067L693.255 158.059L693.255 302.75L726.896 302.75L726.911 286.682L826.967 344.444L991.254 249.602Z" fill="#929292"/>
<path d="M991.269 249.003L967.463 235.259L826.967 316.368L726.896 258.597L726.896 176.889L866.354 176.889L865.224 157.459H693.239L693.255 302.142L726.911 302.151L726.911 286.074L826.983 343.845L991.269 249.003Z" fill="#8E8E8E"/>
<path d="M991.269 248.395L967.463 234.652L826.967 315.76L726.911 257.998L726.896 176.281L866.354 176.281L865.239 156.86L693.255 156.86L693.239 301.543L726.911 301.543L726.911 285.466L826.983 343.237L991.269 248.395Z" fill="#8A8A8A"/>
<path d="M991.254 247.796L967.463 234.061L826.982 315.161L726.911 257.39L726.911 175.682L866.339 175.682L865.239 156.252L693.255 156.252V300.944L726.911 300.935L726.896 284.867L826.967 342.638L991.254 247.796Z" fill="#868686"/>
<path d="M991.254 247.187L967.463 233.453L826.967 314.562L726.896 256.791L726.911 175.074L866.339 175.074L865.239 155.644L693.255 155.644V300.336L726.896 300.336L726.896 284.259L826.967 342.03L991.254 247.187Z" fill="#828282"/>
<path d="M991.254 246.579L967.463 232.845L826.967 313.954L726.896 256.183L726.911 174.466L866.354 174.475L865.224 155.045L693.255 155.036L693.255 299.728L726.896 299.728L726.911 283.66L826.967 341.422L991.254 246.579Z" fill="#7D7D7D"/>
<path d="M991.269 245.98L967.463 232.237L826.967 313.346L726.896 255.575L726.896 173.867L866.354 173.867L865.224 154.437L693.239 154.437L693.255 299.12L726.911 299.129L726.911 283.052L826.983 340.823L991.269 245.98Z" fill="#797979"/>
<path d="M991.269 245.372L967.479 231.638L826.982 312.747L726.911 254.976L726.896 173.259H866.354L865.239 153.838L693.255 153.838L693.239 298.521L726.911 298.521L726.911 282.444L826.982 340.215L991.269 245.372Z" fill="#757575"/>
<path d="M991.254 244.773L967.463 231.039L826.982 312.139L726.911 254.368L726.911 172.66L866.339 172.66L865.239 153.23L693.255 153.23V297.922L726.911 297.913L726.896 281.845L826.967 339.616L991.254 244.773Z" fill="#717171"/>
<path d="M991.254 244.165L967.463 230.431L826.967 311.54L726.896 253.768L726.911 172.052L866.339 172.052L865.239 152.622H693.255L693.255 297.314L726.896 297.314L726.896 281.237L826.967 339.008L991.254 244.165Z" fill="#6D6D6D"/>
<path d="M991.254 243.557L967.463 229.823L826.967 310.931L726.896 253.16V171.453L866.354 171.453L865.224 152.023L693.239 152.023L693.255 296.706L726.896 296.706L726.911 280.638L826.967 338.4L991.254 243.557Z" fill="#696969"/>
<path d="M991.269 242.958L967.463 229.215L826.967 310.323L726.896 252.552V170.845L866.354 170.845L865.224 151.415L693.239 151.415L693.255 296.097L726.911 296.106L726.911 280.03L826.983 337.801L991.269 242.958Z" fill="#646464"/>
<path d="M991.269 242.35L967.479 228.616L826.982 309.724L726.911 251.953L726.896 170.237L866.354 170.237L865.239 150.816L693.255 150.816L693.239 295.498H726.911L726.896 279.431L826.967 337.202L991.269 242.35Z" fill="#606060"/>
<path d="M991.254 241.751L967.463 228.017L826.982 309.116L726.911 251.345L726.911 169.638L866.339 169.638L865.239 150.208L693.255 150.208L693.255 294.899L726.896 294.899L726.896 278.822L826.967 336.594L991.254 241.751Z" fill="#5C5C5C"/>
<path d="M991.254 241.143L967.463 227.409L826.967 308.517L726.896 250.746L726.911 169.03L866.339 169.03L865.239 149.6L693.255 149.6V294.291L726.896 294.291L726.896 278.214L826.967 335.986L991.254 241.143Z" fill="#585858"/>
<path d="M991.269 240.544L967.463 226.801L826.967 307.909L726.896 250.138L726.896 168.431L866.354 168.431L865.224 149.001L693.239 149.001L693.255 293.683L726.896 293.683L726.911 277.615L826.983 335.386L991.269 240.544Z" fill="#545454"/>
<path d="M991.269 239.936L967.463 226.193L826.967 307.301L726.911 249.539L726.896 167.823L866.354 167.823L865.224 148.393L693.239 148.393V293.084L726.911 293.084L726.911 277.007L826.982 334.779L991.269 239.936Z" fill="#4F4F4F"/>
<path d="M991.269 239.328L967.479 225.594L826.982 306.702L726.911 248.931L726.911 167.224L866.354 167.215L865.239 147.794L693.255 147.794L693.239 292.476L726.911 292.476L726.896 276.408L826.967 334.179L991.269 239.328Z" fill="#4B4B4B"/>
<path d="M991.254 238.729L967.463 224.995L826.983 306.094L726.911 248.323L726.911 166.616L866.339 166.615L865.239 147.186L693.255 147.186L693.255 291.877L726.896 291.877L726.896 275.8L826.967 333.571L991.254 238.729Z" fill="#474747"/>
<path d="M991.254 238.121L967.463 224.387L826.967 305.495L726.896 247.724L726.911 166.007L866.354 166.016L865.239 146.578L693.255 146.578V291.269L726.896 291.269L726.911 275.201L826.967 332.963L991.254 238.121Z" fill="#434343"/>
<path d="M991.269 237.522L967.463 223.779L826.967 304.887L726.896 247.116L726.896 165.408L866.354 165.408L865.224 145.978L693.239 145.978L693.255 290.661L726.911 290.67L726.911 274.593L826.983 332.364L991.269 237.522Z" fill="#3F3F3F"/>
<path d="M991.269 236.914L967.463 223.171L826.967 304.279L726.911 246.517L726.896 164.8L866.354 164.8L865.239 145.379L693.255 145.379L693.239 290.062H726.911L726.911 273.985L826.983 331.756L991.269 236.914Z" fill="#3B3B3B"/>
<path d="M991.254 236.315L967.463 222.58L826.983 303.68L726.911 245.909L726.911 164.201L866.339 164.201L865.239 144.771H693.255L693.255 289.463L726.911 289.454L726.896 273.386L826.967 331.157L991.254 236.315Z" fill="#363636"/>
<path d="M991.254 235.707L967.463 221.972L826.983 303.072L726.911 245.301L726.911 163.593H866.339L865.239 144.163L693.255 144.163L693.255 288.855L726.896 288.855L726.896 272.778L826.967 330.549L991.254 235.707Z" fill="#323232"/>
<path d="M991.254 235.099L967.463 221.364L826.967 302.473L726.896 244.702L726.911 162.985L866.354 162.994L865.224 143.564L693.255 143.555L693.255 288.247L726.896 288.247L726.911 272.179L826.967 329.941L991.254 235.099Z" fill="#2E2E2E"/>
<path d="M991.269 234.5L967.463 220.756L826.967 301.865L726.896 244.094L726.896 162.386L866.354 162.386L865.224 142.956H693.239L693.255 287.639L726.911 287.648L726.911 271.571L826.983 329.342L991.269 234.5Z" fill="#2A2A2A"/>
<path d="M991.269 233.891L967.479 220.157L826.982 301.266L726.911 243.495L726.896 161.778L866.354 161.778L865.239 142.357L693.255 142.357L693.239 287.04L726.911 287.04L726.911 270.963L826.983 328.734L991.269 233.891Z" fill="#262626"/>
<path d="M991.254 233.292L967.463 219.558L826.982 300.658L726.911 242.887L726.911 161.179L866.339 161.179L865.239 141.749L693.255 141.749V286.441L726.911 286.432L726.896 270.364L826.967 328.135L991.254 233.292Z" fill="#212121"/>
<path d="M991.254 232.684L967.463 218.95L826.967 300.059L726.896 242.287L726.911 160.571L866.339 160.571L865.239 141.141L693.255 141.141L693.255 285.833L726.896 285.833L726.896 269.756L826.967 327.527L991.254 232.684Z" fill="#1D1D1D"/>
<path d="M991.254 232.076L967.463 218.342L826.967 299.451L726.896 241.679L726.896 159.972L866.354 159.972L865.224 140.542L693.239 140.542L693.255 285.225L726.896 285.225L726.911 269.157L826.967 326.919L991.254 232.076Z" fill="#191919"/>
<path d="M991.269 231.477L967.463 217.734L826.967 298.843L726.896 241.071L726.896 159.364L866.354 159.364L865.224 139.934L693.239 139.934L693.255 284.617L726.911 284.626L726.911 268.549L826.983 326.32L991.269 231.477Z" fill="#151515"/>
<path d="M991.269 230.869L967.479 217.135L826.983 298.244L726.911 240.472L726.896 158.756H866.354L865.239 139.335L693.255 139.335L693.239 284.018L726.911 284.018L726.896 267.95L826.967 325.721L991.269 230.869Z" fill="#111111"/>
<path d="M991.254 230.27L967.463 216.536L826.982 297.636L726.911 239.864L726.911 158.157L866.339 158.157L865.239 138.727L693.255 138.727V283.419L726.896 283.419L726.896 267.342L826.967 325.113L991.254 230.27Z" fill="#0D0D0D"/>
<path d="M991.254 229.662L967.463 215.928L826.967 297.036L726.896 239.265L726.911 157.549L866.339 157.549L865.239 138.119H693.255V282.811L726.896 282.811L726.896 266.734L826.967 324.505L991.254 229.662Z" fill="#080808"/>
<path d="M991.269 229.063L967.463 215.32L826.967 296.428L726.896 238.657L726.896 156.95H866.354L865.224 137.52L693.239 137.52L693.255 282.202L726.896 282.202L726.911 266.135L826.983 323.906L991.269 229.063Z" fill="#040404"/>
<path d="M991.269 228.455L967.463 214.712L826.967 295.82L726.911 238.058L726.896 156.342H866.354L865.224 136.912L693.239 136.912V281.603L726.911 281.603L726.911 265.527L826.982 323.298L991.269 228.455Z" fill="black"/>
</g>
<path d="M991.269 228.455L967.463 214.712L826.967 295.82L726.911 238.058L726.896 156.342H866.354L865.224 136.912L693.239 136.912V281.603L726.911 281.603L726.911 265.527L826.982 323.298L991.269 228.455Z" fill="white"/>
</g>
<g style="mix-blend-mode:overlay">
<path d="M1176.67 298.717C1163.56 298.753 1152.14 295.963 1142.41 290.346C1132.68 284.73 1127.84 278.136 1127.91 270.564C1127.97 262.993 1132.96 256.346 1142.87 250.622C1152.78 244.899 1164.3 242.02 1177.41 241.985C1190.53 241.949 1201.95 244.739 1211.68 250.356C1221.41 255.972 1226.24 262.566 1226.18 270.138C1226.12 277.709 1221.13 284.356 1211.22 290.08C1201.3 295.803 1189.79 298.682 1176.67 298.717ZM1142.68 270.138C1142.75 275.221 1146.35 279.824 1153.49 283.948C1160.63 288.071 1168.61 290.151 1177.41 290.186C1186.22 290.222 1194.1 288.231 1201.06 284.214C1207.95 280.233 1211.37 275.701 1211.31 270.618C1211.31 265.499 1207.74 260.878 1200.59 256.754C1193.45 252.631 1185.45 250.569 1176.58 250.569C1167.78 250.534 1159.93 252.506 1153.03 256.488C1146.07 260.505 1142.62 265.055 1142.68 270.138ZM1244.52 268.722L1196.03 222.067L1222.35 206.871L1303.63 234.597L1292.55 240.996L1224.2 217.535L1214.04 223.4L1255.14 262.59L1244.52 268.722ZM1308.7 231.669L1244.05 194.345L1254.67 188.213L1297.62 213.007L1305.01 218.339L1305.93 217.805L1283.76 171.417L1298.08 163.152L1362.73 200.476L1352.11 206.608L1309.16 181.814L1301.77 176.482L1300.85 177.015L1323.02 223.404L1308.7 231.669ZM1372.86 194.632L1308.2 157.308L1325.75 147.177L1383.48 160.24L1385.79 158.907L1363.16 125.582L1380.25 115.718L1444.9 153.042L1434.28 159.174L1389.02 133.047L1381.17 127.448L1380.25 127.982L1402.41 160.507L1385.79 170.105L1329.45 157.308L1328.52 157.841L1338.22 162.373L1383.48 188.5L1372.86 194.632ZM1455.05 147.181L1390.4 109.857L1443.51 79.1976L1508.16 116.522L1497.54 122.654L1443.04 91.1947L1411.18 109.59L1465.67 141.049L1455.05 147.181Z" fill="#A5A5A5"/>
<g style="mix-blend-mode:multiply" opacity="0.2">
<path d="M1273.53 292.7L1255.53 282.306L1149.21 343.687L1073.48 299.967L1073.46 238.127L1179 238.127L1178.16 223.43L1048.01 223.43L1047.99 332.921L1073.48 332.921L1073.46 320.761L1149.19 364.481L1273.53 292.7Z" fill="#A5A5A5"/>
<path d="M1273.52 292.246L1255.52 281.853L1149.21 343.226L1073.48 299.507L1073.48 237.673L1178.99 237.673L1178.16 222.969L1048.01 222.969V332.467L1073.46 332.467L1073.46 320.301L1149.19 364.02L1273.52 292.246Z" fill="#FBFBFB"/>
<path d="M1273.52 291.786L1255.52 281.393L1149.19 342.773L1073.46 299.054L1073.48 237.213L1178.99 237.213L1178.16 222.509L1048.01 222.509L1048.01 332.007L1073.46 332.007L1073.46 319.841L1149.19 363.56L1273.52 291.786Z" fill="#F7F7F7"/>
<path d="M1273.53 291.333L1255.52 280.933L1149.19 342.313L1073.46 298.594L1073.46 236.76L1179 236.76L1178.15 222.056H1047.99L1048.01 331.547L1073.46 331.547L1073.48 319.388L1149.21 363.107L1273.53 291.333Z" fill="#F2F2F2"/>
<path d="M1273.53 290.873L1255.52 280.473L1149.19 341.853L1073.48 298.14L1073.46 236.3L1179 236.3L1178.15 221.596L1048.01 221.603L1047.99 331.094L1073.48 331.094L1073.48 318.928L1149.21 362.647L1273.53 290.873Z" fill="#EEEEEE"/>
<path d="M1273.53 290.413L1255.53 280.019L1149.21 341.4L1073.48 297.68L1073.48 235.846L1179 235.84L1178.16 221.142L1048.01 221.142L1047.99 330.634L1073.48 330.634L1073.46 318.474L1149.19 362.193L1273.53 290.413Z" fill="#EAEAEA"/>
<path d="M1273.52 289.959L1255.52 279.566L1149.21 340.939L1073.48 297.22L1073.48 235.386H1178.99L1178.16 220.682L1048.01 220.682V330.18L1073.46 330.18L1073.46 318.014L1149.19 361.733L1273.52 289.959Z" fill="#E6E6E6"/>
<path d="M1273.52 289.499L1255.52 279.106L1149.19 340.486L1073.46 296.767L1073.48 234.926L1179 234.933L1178.15 220.229L1048.01 220.222V329.72L1073.46 329.72L1073.48 317.561L1149.19 361.273L1273.52 289.499Z" fill="#E2E2E2"/>
<path d="M1273.53 289.046L1255.52 278.646L1149.19 340.026L1073.46 296.307L1073.46 234.473L1179 234.473L1178.15 219.769H1047.99L1048.01 329.26L1073.48 329.267L1073.48 317.101L1149.21 360.82L1273.53 289.046Z" fill="#DEDEDE"/>
<path d="M1273.53 288.586L1255.52 278.185L1149.19 339.566L1073.48 295.853L1073.46 234.013L1179 234.013L1178.16 219.315L1048.01 219.315L1047.99 328.807L1073.48 328.807V316.64L1149.21 360.36L1273.53 288.586Z" fill="#D9D9D9"/>
<path d="M1273.52 288.132L1255.52 277.739L1149.21 339.112L1073.48 295.393L1073.48 233.559L1178.99 233.559L1178.16 218.855L1048.01 218.855L1048.01 328.353L1073.48 328.347L1073.46 316.187L1149.19 359.906L1273.52 288.132Z" fill="#D5D5D5"/>
<path d="M1273.52 287.672L1255.52 277.279L1149.19 338.659L1073.46 294.94L1073.48 233.099L1178.99 233.099L1178.16 218.395L1048.01 218.395L1048.01 327.893L1073.46 327.893L1073.46 315.727L1149.19 359.446L1273.52 287.672Z" fill="#D1D1D1"/>
<path d="M1273.52 287.212L1255.52 276.819L1149.19 338.199L1073.46 294.479L1073.48 232.639L1179 232.646L1178.15 217.942L1048.01 217.935L1048.01 327.433L1073.46 327.433L1073.48 315.273L1149.19 358.986L1273.52 287.212Z" fill="#CDCDCD"/>
<path d="M1273.53 286.759L1255.52 276.358L1149.19 337.739L1073.46 294.019L1073.46 232.186L1179 232.186L1178.15 217.482L1047.99 217.482L1048.01 326.973L1073.48 326.98L1073.48 314.813L1149.21 358.533L1273.53 286.759Z" fill="#C9C9C9"/>
<path d="M1273.53 286.299L1255.53 275.905L1149.21 337.285L1073.48 293.566L1073.46 231.726L1179 231.726L1178.16 217.028L1048.01 217.028L1047.99 326.52L1073.48 326.52L1073.46 314.36L1149.19 358.079L1273.53 286.299Z" fill="#C4C4C4"/>
<path d="M1273.52 285.845L1255.52 275.452L1149.21 336.825L1073.48 293.106L1073.48 231.272L1178.99 231.272L1178.16 216.568L1048.01 216.568L1048.01 326.066L1073.48 326.059L1073.46 313.9L1149.19 357.619L1273.52 285.845Z" fill="#C0C0C0"/>
<path d="M1273.52 285.385L1255.52 274.991L1149.19 336.372L1073.46 292.652L1073.48 230.812L1178.99 230.812L1178.16 216.108L1048.01 216.108V325.606L1073.46 325.606L1073.46 313.44L1149.19 357.159L1273.52 285.385Z" fill="#BCBCBC"/>
<path d="M1273.53 284.932L1255.52 274.531L1149.19 335.912L1073.46 292.192L1073.46 230.359L1179 230.359L1178.15 215.655L1047.99 215.655L1048.01 325.146L1073.46 325.146L1073.48 312.986L1149.21 356.706L1273.53 284.932Z" fill="#B8B8B8"/>
<path d="M1273.53 284.472L1255.52 274.071L1149.19 335.452L1073.46 291.732L1073.46 229.898L1179 229.898L1178.15 215.195H1047.99L1047.99 324.693L1073.48 324.693L1073.48 312.526L1149.21 356.246L1273.53 284.472Z" fill="#B4B4B4"/>
<path d="M1273.53 284.011L1255.53 273.618L1149.21 334.998L1073.48 291.279L1073.46 229.438L1179 229.438L1178.16 214.741L1048.01 214.741L1047.99 324.232L1073.48 324.233L1073.46 312.073L1149.19 355.792L1273.53 284.011Z" fill="#B0B0B0"/>
<path d="M1273.52 283.558L1255.52 273.165L1149.21 334.538L1073.48 290.819L1073.48 228.985L1178.99 228.985L1178.16 214.281L1048.01 214.281L1048.01 323.779L1073.46 323.779L1073.46 311.613L1149.19 355.332L1273.52 283.558Z" fill="#ABABAB"/>
<path d="M1273.52 283.098L1255.52 272.704L1149.19 334.085L1073.46 290.365L1073.48 228.525L1178.99 228.525L1178.16 213.821L1048.01 213.821L1048.01 323.319L1073.46 323.319L1073.46 311.153L1149.19 354.872L1273.52 283.098Z" fill="#A7A7A7"/>
<path d="M1273.53 282.645L1255.52 272.244L1149.19 333.625L1073.46 289.905L1073.46 228.072L1179 228.072L1178.15 213.368L1047.99 213.368L1048.01 322.859L1073.46 322.859L1073.48 310.699L1149.21 354.419L1273.53 282.645Z" fill="#A3A3A3"/>
<path d="M1273.53 282.185L1255.52 271.784L1149.19 333.165L1073.48 289.452L1073.46 227.611L1179 227.611L1178.15 212.908L1048.01 212.914L1047.99 322.406L1073.48 322.406L1073.48 310.239L1149.21 353.959L1273.53 282.185Z" fill="#9F9F9F"/>
<path d="M1273.53 281.724L1255.53 271.331L1149.21 332.711L1073.48 288.992L1073.48 227.158L1179 227.151L1178.16 212.454L1048.01 212.454L1047.99 321.945L1073.48 321.945L1073.46 309.786L1149.19 353.505L1273.53 281.724Z" fill="#9B9B9B"/>
<path d="M1273.52 281.271L1255.52 270.877L1149.21 332.251L1073.48 288.531V226.698L1178.99 226.698L1178.16 211.994L1048.01 211.994V321.492L1073.46 321.492L1073.46 309.325L1149.19 353.045L1273.52 281.271Z" fill="#969696"/>
<path d="M1273.52 280.811L1255.52 270.417L1149.19 331.798L1073.46 288.078L1073.48 226.238L1179 226.245L1178.15 211.541L1048.01 211.534L1048.01 321.032L1073.46 321.032L1073.48 308.872L1149.19 352.585L1273.52 280.811Z" fill="#929292"/>
<path d="M1273.53 280.357L1255.52 269.957L1149.19 331.337L1073.46 287.618L1073.46 225.784L1179 225.784L1178.15 211.08L1047.99 211.08L1048.01 320.572L1073.48 320.578L1073.48 308.412L1149.21 352.131L1273.53 280.357Z" fill="#8E8E8E"/>
<path d="M1273.53 279.897L1255.52 269.497L1149.19 330.877L1073.48 287.165L1073.46 225.324L1179 225.324L1178.16 210.627L1048.01 210.627L1047.99 320.118L1073.48 320.118L1073.48 307.952L1149.21 351.671L1273.53 279.897Z" fill="#8A8A8A"/>
<path d="M1273.52 279.444L1255.52 269.05L1149.21 330.424L1073.48 286.705L1073.48 224.871H1178.99L1178.16 210.167L1048.01 210.167V319.665L1073.48 319.658L1073.46 307.499L1149.19 351.218L1273.52 279.444Z" fill="#868686"/>
<path d="M1273.52 278.984L1255.52 268.59L1149.19 329.971L1073.46 286.251L1073.48 224.411L1178.99 224.411L1178.16 209.707L1048.01 209.707V319.205L1073.46 319.205L1073.46 307.038L1149.19 350.758L1273.52 278.984Z" fill="#828282"/>
<path d="M1273.52 278.524L1255.52 268.13L1149.19 329.51L1073.46 285.791L1073.48 223.951L1179 223.957L1178.15 209.253L1048.01 209.247L1048.01 318.745L1073.46 318.745L1073.48 306.585L1149.19 350.298L1273.52 278.524Z" fill="#7D7D7D"/>
<path d="M1273.53 278.07L1255.52 267.67L1149.19 329.05L1073.46 285.331L1073.46 223.497L1179 223.497L1178.15 208.793L1047.99 208.793L1048.01 318.285L1073.48 318.291L1073.48 306.125L1149.21 349.844L1273.53 278.07Z" fill="#797979"/>
<path d="M1273.53 277.61L1255.53 267.217L1149.21 328.597L1073.48 284.878L1073.46 223.037L1179 223.037L1178.16 208.34L1048.01 208.34L1047.99 317.831L1073.48 317.831V305.665L1149.21 349.384L1273.53 277.61Z" fill="#757575"/>
<path d="M1273.52 277.157L1255.52 266.763L1149.21 328.137L1073.48 284.418L1073.48 222.584L1178.99 222.584L1178.16 207.88L1048.01 207.88L1048.01 317.378L1073.48 317.371L1073.46 305.212L1149.19 348.931L1273.52 277.157Z" fill="#717171"/>
<path d="M1273.52 276.697L1255.52 266.303L1149.19 327.683L1073.46 283.964L1073.48 222.124H1178.99L1178.16 207.42L1048.01 207.42L1048.01 316.918L1073.46 316.918L1073.46 304.751L1149.19 348.471L1273.52 276.697Z" fill="#6D6D6D"/>
<path d="M1273.52 276.237L1255.52 265.843L1149.19 327.223L1073.46 283.504L1073.46 221.67L1179 221.67L1178.15 206.966L1047.99 206.966L1048.01 316.458L1073.46 316.458L1073.48 304.298L1149.19 348.01L1273.52 276.237Z" fill="#696969"/>
<path d="M1273.53 275.783L1255.52 265.383L1149.19 326.763L1073.46 283.044V221.21L1179 221.21L1178.15 206.506L1047.99 206.506L1048.01 315.998L1073.48 316.004L1073.48 303.838L1149.21 347.557L1273.53 275.783Z" fill="#646464"/>
<path d="M1273.53 275.323L1255.53 264.929L1149.21 326.31L1073.48 282.59L1073.46 220.75L1179 220.75L1178.16 206.053L1048.01 206.053L1047.99 315.544L1073.48 315.544L1073.46 303.384L1149.19 347.104L1273.53 275.323Z" fill="#606060"/>
<path d="M1273.52 274.87L1255.52 264.476L1149.21 325.85L1073.48 282.13L1073.48 220.297L1178.99 220.297L1178.16 205.593L1048.01 205.593L1048.01 315.091L1073.46 315.091L1073.46 302.924L1149.19 346.644L1273.52 274.87Z" fill="#5C5C5C"/>
<path d="M1273.52 274.409L1255.52 264.016L1149.19 325.396L1073.46 281.677L1073.48 219.836L1178.99 219.836L1178.16 205.132L1048.01 205.132V314.631L1073.46 314.631L1073.46 302.464L1149.19 346.183L1273.52 274.409Z" fill="#585858"/>
<path d="M1273.53 273.956L1255.52 263.556L1149.19 324.936L1073.46 281.217L1073.46 219.383L1179 219.383L1178.15 204.679L1047.99 204.679L1048.01 314.17L1073.46 314.17L1073.48 302.011L1149.21 345.73L1273.53 273.956Z" fill="#545454"/>
<path d="M1273.53 273.496L1255.52 263.096L1149.19 324.476L1073.48 280.763L1073.46 218.923L1179 218.923L1178.15 204.219H1047.99L1047.99 313.717L1073.48 313.717L1073.48 301.551L1149.21 345.27L1273.53 273.496Z" fill="#4F4F4F"/>
<path d="M1273.53 273.036L1255.53 262.642L1149.21 324.023L1073.48 280.303L1073.48 218.47L1179 218.463L1178.16 203.766L1048.01 203.766L1047.99 313.257L1073.48 313.257L1073.46 301.097L1149.19 344.817L1273.53 273.036Z" fill="#4B4B4B"/>
<path d="M1273.52 272.583L1255.52 262.189L1149.21 323.563L1073.48 279.843L1073.48 218.01L1178.99 218.01L1178.16 203.306L1048.01 203.306L1048.01 312.804L1073.46 312.804L1073.46 300.637L1149.19 344.357L1273.52 272.583Z" fill="#474747"/>
<path d="M1273.52 272.122L1255.52 261.729L1149.19 323.109L1073.46 279.39L1073.48 217.549L1179 217.556L1178.16 202.845L1048.01 202.845L1048.01 312.344L1073.46 312.344L1073.48 300.184L1149.19 343.896L1273.52 272.122Z" fill="#434343"/>
<path d="M1273.53 271.669L1255.52 261.269L1149.19 322.649L1073.46 278.93L1073.46 217.096L1179 217.096L1178.15 202.392L1047.99 202.392L1048.01 311.883L1073.48 311.89L1073.48 299.724L1149.21 343.443L1273.53 271.669Z" fill="#3F3F3F"/>
<path d="M1273.53 271.209L1255.52 260.809L1149.19 322.189L1073.48 278.476L1073.46 216.636L1179 216.636L1178.16 201.939L1048.01 201.939L1047.99 311.43L1073.48 311.43L1073.48 299.264L1149.21 342.983L1273.53 271.209Z" fill="#3B3B3B"/>
<path d="M1273.52 270.756L1255.52 260.362L1149.21 321.736L1073.48 278.016L1073.48 216.182L1178.99 216.182L1178.16 201.478L1048.01 201.479L1048.01 310.977L1073.48 310.97L1073.46 298.81L1149.19 342.529L1273.52 270.756Z" fill="#363636"/>
<path d="M1273.52 270.295L1255.52 259.902L1149.21 321.275L1073.48 277.556V215.722L1178.99 215.722L1178.16 201.018L1048.01 201.018V310.516L1073.46 310.516L1073.46 298.35L1149.19 342.069L1273.52 270.295Z" fill="#323232"/>
<path d="M1273.52 269.835L1255.52 259.442L1149.19 320.822L1073.46 277.103L1073.48 215.262L1179 215.269L1178.15 200.565L1048.01 200.558V310.056L1073.46 310.056L1073.48 297.897L1149.19 341.609L1273.52 269.835Z" fill="#2E2E2E"/>
<path d="M1273.53 269.382L1255.52 258.982L1149.19 320.362L1073.46 276.643L1073.46 214.809L1179 214.809L1178.15 200.105L1047.99 200.105L1048.01 309.596L1073.48 309.603L1073.48 297.437L1149.21 341.156L1273.53 269.382Z" fill="#2A2A2A"/>
<path d="M1273.53 268.922L1255.53 258.528L1149.21 319.909L1073.48 276.189L1073.46 214.349L1179 214.349L1178.16 199.651L1048.01 199.651L1047.99 309.143L1073.48 309.143L1073.48 296.976L1149.21 340.696L1273.53 268.922Z" fill="#262626"/>
<path d="M1273.52 268.468L1255.52 258.075L1149.21 319.448L1073.48 275.729L1073.48 213.895L1178.99 213.895L1178.16 199.191L1048.01 199.191V308.689L1073.48 308.683L1073.46 296.523L1149.19 340.242L1273.52 268.468Z" fill="#212121"/>
<path d="M1273.52 268.008L1255.52 257.615L1149.19 318.995L1073.46 275.276L1073.48 213.435H1178.99L1178.16 198.731L1048.01 198.731L1048.01 308.229L1073.46 308.229L1073.46 296.063L1149.19 339.782L1273.52 268.008Z" fill="#1D1D1D"/>
<path d="M1273.52 267.548L1255.52 257.155L1149.19 318.535L1073.46 274.815L1073.46 212.982L1179 212.982L1178.15 198.278L1047.99 198.278L1048.01 307.769L1073.46 307.769L1073.48 295.609L1149.19 339.322L1273.52 267.548Z" fill="#191919"/>
<path d="M1273.53 267.095L1255.52 256.694L1149.19 318.075L1073.46 274.355L1073.46 212.522L1179 212.522L1178.15 197.818L1047.99 197.818L1048.01 307.309L1073.48 307.316L1073.48 295.149L1149.21 338.869L1273.53 267.095Z" fill="#151515"/>
<path d="M1273.53 266.635L1255.53 256.241L1149.21 317.621L1073.48 273.902L1073.46 212.062L1179 212.062L1178.16 197.364L1048.01 197.364L1047.99 306.856L1073.48 306.856L1073.46 294.696L1149.19 338.415L1273.53 266.635Z" fill="#111111"/>
<path d="M1273.52 266.181L1255.52 255.788L1149.21 317.161L1073.48 273.442L1073.48 211.608L1178.99 211.608L1178.16 196.904L1048.01 196.904L1048.01 306.402L1073.46 306.402L1073.46 294.236L1149.19 337.955L1273.52 266.181Z" fill="#0D0D0D"/>
<path d="M1273.52 265.721L1255.52 255.328L1149.19 316.708L1073.46 272.989L1073.48 211.148H1178.99L1178.16 196.444L1048.01 196.444V305.942L1073.46 305.942L1073.46 293.776L1149.19 337.495L1273.52 265.721Z" fill="#080808"/>
<path d="M1273.53 265.268L1255.52 254.868L1149.19 316.248L1073.46 272.529V210.695L1179 210.695L1178.15 195.991L1047.99 195.991L1048.01 305.482L1073.46 305.482L1073.48 293.322L1149.21 337.042L1273.53 265.268Z" fill="#040404"/>
<path d="M1273.53 264.808L1255.52 254.407L1149.19 315.788L1073.48 272.075L1073.46 210.235L1179 210.235L1178.15 195.531L1047.99 195.531L1047.99 305.029L1073.48 305.029L1073.48 292.862L1149.21 336.582L1273.53 264.808Z" fill="black"/>
</g>
<path d="M1273.53 264.808L1255.52 254.407L1149.19 315.788L1073.48 272.075L1073.46 210.235L1179 210.235L1178.15 195.531L1047.99 195.531L1047.99 305.029L1073.48 305.029L1073.48 292.862L1149.21 336.582L1273.53 264.808Z" fill="#A5A5A5"/>
</g>
<g style="mix-blend-mode:overlay">
<path d="M927.673 73.7175C914.558 73.753 903.136 70.9626 893.407 65.3462C883.678 59.7298 878.845 53.1358 878.906 45.5643C878.968 37.9928 883.956 31.3456 893.869 25.6225C903.782 19.8995 915.297 17.0202 928.412 16.9846C941.528 16.9491 952.95 19.7395 962.678 25.3559C972.407 30.9723 977.241 37.5663 977.179 45.1378C977.118 52.7093 972.13 59.3565 962.217 65.0796C952.303 70.8026 940.789 73.6819 927.673 73.7175ZM893.684 45.1378C893.746 50.221 897.348 54.8243 904.491 58.9477C911.633 63.0712 919.607 65.1507 928.412 65.1862C937.217 65.2218 945.099 63.2311 952.057 59.2143C958.953 55.2331 962.371 50.7009 962.309 45.6176C962.309 40.4989 958.738 35.8778 951.595 31.7544C944.452 27.6309 936.448 25.5692 927.581 25.5692C918.776 25.5337 910.925 27.5065 904.029 31.4878C897.071 35.5046 893.623 40.0546 893.684 45.1378ZM995.517 43.7223L947.027 -2.93302L973.35 -18.1293L1054.63 9.59726L1043.55 15.9957L975.198 -7.46525L965.038 -1.60001L1006.14 37.5904L995.517 43.7223ZM1059.7 6.66881L995.048 -30.6554L1005.67 -36.7873L1048.62 -11.9933L1056.01 -6.66128L1056.93 -7.19448L1034.76 -53.5832L1049.08 -61.8478L1113.73 -24.5236L1103.11 -18.3918L1060.16 -43.1857L1052.77 -48.5177L1051.85 -47.9845L1074.02 -1.59584L1059.7 6.66881ZM1123.86 -30.368L1059.2 -67.6922L1076.75 -77.8231L1134.48 -64.7596L1136.79 -66.0926L1114.16 -99.4179L1131.25 -109.282L1195.9 -71.9579L1185.28 -65.826L1140.02 -91.953L1132.17 -97.5516L1131.25 -97.0184L1153.41 -64.493L1136.79 -54.8954L1080.45 -67.6922L1079.52 -67.159L1089.22 -62.6268L1134.48 -36.4998L1123.86 -30.368ZM1206.05 -77.8189L1141.4 -115.143L1194.51 -145.802L1259.16 -108.478L1248.54 -102.346L1194.04 -133.805L1162.18 -115.41L1216.67 -83.9508L1206.05 -77.8189Z" fill="white"/>
<g style="mix-blend-mode:multiply" opacity="0.2">
<path d="M1024.53 67.6999L1006.53 57.3063L900.206 118.687L824.475 74.9673L824.464 13.1268L930.002 13.1268L929.158 -1.57039L799.005 -1.57039L798.994 107.921L824.475 107.921L824.464 95.7612L900.194 139.481L1024.53 67.6999Z" fill="white"/>
<path d="M1024.52 67.2465L1006.52 56.8529L900.206 118.227L824.475 74.5071L824.475 12.6734L929.99 12.6734L929.158 -2.03055L799.005 -2.03056V107.468L824.464 107.468L824.464 95.3011L900.195 139.02L1024.52 67.2465Z" fill="#FBFBFB"/>
<path d="M1024.52 66.7863L1006.52 56.3928L900.195 117.773L824.464 74.0537L824.475 12.2132L929.99 12.2132L929.158 -2.4907L799.005 -2.49071L799.005 107.007L824.464 107.007L824.464 94.8409L900.195 138.56L1024.52 66.7863Z" fill="#F7F7F7"/>
<path d="M1024.53 66.3329L1006.52 55.9326L900.195 117.313L824.464 73.5936L824.464 11.7598L930.002 11.7598L929.146 -2.94412H798.994L799.005 106.547L824.464 106.547L824.475 94.3875L900.206 138.107L1024.53 66.3329Z" fill="#F2F2F2"/>
<path d="M1024.53 65.873L1006.52 55.4726L900.195 116.853L824.475 73.1404L824.464 11.2999L930.002 11.2999L929.146 -3.40406L799.005 -3.39729L798.994 106.094L824.475 106.094L824.475 93.9276L900.206 137.647L1024.53 65.873Z" fill="#EEEEEE"/>
<path d="M1024.53 65.4128L1006.53 55.0192L900.206 116.4L824.475 72.6801L824.475 10.8464L930.002 10.8397L929.158 -3.85753L799.005 -3.85753L798.994 105.634L824.475 105.634L824.464 93.4741L900.194 137.193L1024.53 65.4128Z" fill="#EAEAEA"/>
<path d="M1024.52 64.9595L1006.52 54.5659L900.206 115.939L824.475 72.2201L824.475 10.3864H929.99L929.158 -4.31757L799.005 -4.31758V105.18L824.464 105.18L824.464 93.014L900.194 136.733L1024.52 64.9595Z" fill="#E6E6E6"/>
<path d="M1024.52 64.4993L1006.52 54.1057L900.195 115.486L824.464 71.7667L824.475 9.92616L930.002 9.93293L929.146 -4.77102L799.005 -4.77779V104.72L824.464 104.72L824.475 92.5606L900.195 136.273L1024.52 64.4993Z" fill="#E2E2E2"/>
<path d="M1024.53 64.0459L1006.52 53.6456L900.195 115.026L824.464 71.3065L824.464 9.47281L930.002 9.47281L929.146 -5.23113H798.994L799.005 104.26L824.475 104.267L824.475 92.1005L900.206 135.82L1024.53 64.0459Z" fill="#DEDEDE"/>
<path d="M1024.53 63.5857L1006.52 53.1853L900.195 114.566L824.476 70.8531L824.464 9.01259L930.002 9.0126L929.158 -5.68458L799.005 -5.68459L798.994 103.807L824.476 103.807V91.6403L900.206 135.36L1024.53 63.5857Z" fill="#D9D9D9"/>
<path d="M1024.52 63.1324L1006.52 52.7389L900.206 114.112L824.476 70.3931L824.476 8.55934L929.99 8.55934L929.158 -6.1446L799.005 -6.14461L799.005 103.353L824.476 103.347L824.464 91.187L900.195 134.906L1024.52 63.1324Z" fill="#D5D5D5"/>
<path d="M1024.52 62.6722L1006.52 52.2787L900.195 113.659L824.464 69.9396L824.476 8.09914L929.99 8.09914L929.158 -6.60482L799.005 -6.60481L799.005 102.893L824.464 102.893L824.464 90.7268L900.195 134.446L1024.52 62.6722Z" fill="#D1D1D1"/>
<path d="M1024.52 62.2121L1006.52 51.8185L900.195 113.199L824.464 69.4795L824.476 7.63903L930.002 7.64579L929.146 -7.05816L799.005 -7.06491L799.005 102.433L824.464 102.433L824.476 90.2735L900.195 133.986L1024.52 62.2121Z" fill="#CDCDCD"/>
<path d="M1024.53 61.7588L1006.52 51.3584L900.195 112.739L824.464 69.0194L824.464 7.18568L930.002 7.18568L929.146 -7.51827L798.994 -7.51827L799.005 101.973L824.476 101.98L824.476 89.8133L900.206 133.533L1024.53 61.7588Z" fill="#C9C9C9"/>
<path d="M1024.53 61.2986L1006.53 50.905L900.206 112.285L824.475 68.566L824.464 6.72552L930.002 6.72552L929.158 -7.97165L799.005 -7.97166L798.994 101.52L824.475 101.52L824.464 89.36L900.195 133.079L1024.53 61.2986Z" fill="#C4C4C4"/>
<path d="M1024.52 60.8452L1006.52 50.4516L900.206 111.825L824.475 68.1058L824.475 6.27211L929.99 6.2721L929.158 -8.43184L799.005 -8.43184L799.005 101.066L824.475 101.059L824.464 88.8998L900.195 132.619L1024.52 60.8452Z" fill="#C0C0C0"/>
<path d="M1024.52 60.3851L1006.52 49.9915L900.194 111.372L824.464 67.6525L824.475 5.812L929.99 5.812L929.158 -8.89195L799.005 -8.89195V100.606L824.464 100.606L824.464 88.4397L900.194 132.159L1024.52 60.3851Z" fill="#BCBCBC"/>
<path d="M1024.53 59.9317L1006.52 49.5314L900.195 110.912L824.464 67.1923L824.464 5.35861L930.002 5.35862L929.146 -9.34533L798.994 -9.34533L799.005 100.146L824.464 100.146L824.475 87.9863L900.206 131.706L1024.53 59.9317Z" fill="#B8B8B8"/>
<path d="M1024.53 59.4715L1006.52 49.0712L900.195 110.452L824.464 66.7322L824.464 4.89843L930.002 4.89843L929.146 -9.80552H798.994L798.994 99.6926L824.476 99.6925L824.476 87.5261L900.206 131.245L1024.53 59.4715Z" fill="#B4B4B4"/>
<path d="M1024.53 59.0115L1006.53 48.6179L900.206 109.998L824.476 66.2789L824.464 4.43838L930.002 4.43838L929.158 -10.2588L799.005 -10.2588L798.994 99.2325L824.476 99.2325L824.464 87.0728L900.195 130.792L1024.53 59.0115Z" fill="#B0B0B0"/>
<path d="M1024.52 58.5581L1006.52 48.1645L900.206 109.538L824.475 65.8188L824.475 3.98504L929.99 3.98503L929.158 -10.7189L799.005 -10.7189L799.005 98.7792L824.464 98.7792L824.464 86.6127L900.195 130.332L1024.52 58.5581Z" fill="#ABABAB"/>
<path d="M1024.52 58.0981L1006.52 47.7045L900.195 109.085L824.464 65.3655L824.475 3.52498L929.99 3.52498L929.158 -11.179L799.005 -11.179L799.005 98.3191L824.464 98.3191L824.464 86.1526L900.194 129.872L1024.52 58.0981Z" fill="#A7A7A7"/>
<path d="M1024.53 57.6447L1006.52 47.2444L900.195 108.625L824.464 64.9053L824.464 3.0716L930.002 3.0716L929.146 -11.6323L798.994 -11.6324L799.005 97.859L824.464 97.859L824.475 85.6993L900.206 129.419L1024.53 57.6447Z" fill="#A3A3A3"/>
<path d="M1024.53 57.1846L1006.52 46.7842L900.195 108.165L824.476 64.452L824.464 2.61148L930.002 2.61148L929.146 -12.0925L799.005 -12.0857L798.994 97.4056L824.476 97.4056L824.476 85.2391L900.206 128.959L1024.53 57.1846Z" fill="#9F9F9F"/>
<path d="M1024.53 56.7243L1006.53 46.3307L900.206 107.711L824.476 63.9917L824.476 2.15798L930.002 2.15121L929.158 -12.546L799.005 -12.546L798.994 96.9453L824.476 96.9453L824.464 84.7856L900.195 128.505L1024.53 56.7243Z" fill="#9B9B9B"/>
<path d="M1024.52 56.2709L1006.52 45.8773L900.206 107.251L824.475 63.5315V1.6978L929.99 1.6978L929.158 -13.0061L799.005 -13.0061V96.4919L824.464 96.4919L824.464 84.3255L900.194 128.045L1024.52 56.2709Z" fill="#969696"/>
<path d="M1024.52 55.8109L1006.52 45.4173L900.195 106.798L824.464 63.0783L824.476 1.23781L930.002 1.24457L929.146 -13.4594L799.005 -13.4661L799.005 96.0319L824.464 96.0319L824.476 83.8722L900.195 127.585L1024.52 55.8109Z" fill="#929292"/>
<path d="M1024.53 55.3574L1006.52 44.957L900.195 106.337L824.464 62.618L824.464 0.784256L930.002 0.784242L929.146 -13.9197L798.994 -13.9197L799.005 95.5716L824.475 95.5784L824.475 83.4119L900.206 127.131L1024.53 55.3574Z" fill="#8E8E8E"/>
<path d="M1024.53 54.8974L1006.52 44.4971L900.195 105.877L824.475 62.1648L824.464 0.324334L930.002 0.324343L929.158 -14.3728L799.005 -14.3728L798.994 95.1185L824.475 95.1185L824.475 82.952L900.206 126.671L1024.53 54.8974Z" fill="#8A8A8A"/>
<path d="M1024.52 54.444L1006.52 44.0504L900.206 105.424L824.475 61.7046L824.475 -0.129102H929.99L929.158 -14.8331L799.005 -14.8331V94.665L824.475 94.6582L824.464 82.4986L900.194 126.218L1024.52 54.444Z" fill="#868686"/>
<path d="M1024.52 53.9839L1006.52 43.5903L900.195 104.971L824.464 61.2513L824.475 -0.589216L929.99 -0.589208L929.158 -15.2932L799.005 -15.2932V94.2049L824.464 94.2049L824.464 82.0384L900.194 125.758L1024.52 53.9839Z" fill="#828282"/>
<path d="M1024.52 53.5237L1006.52 43.1301L900.195 104.51L824.464 60.7911L824.475 -1.04941L930.002 -1.04265L929.146 -15.7466L799.005 -15.7534L799.005 93.7447L824.464 93.7447L824.475 81.585L900.195 125.298L1024.52 53.5237Z" fill="#7D7D7D"/>
<path d="M1024.53 53.0703L1006.52 42.67L900.195 104.05L824.464 60.331L824.464 -1.50276L930.002 -1.50278L929.146 -16.2067L798.994 -16.2067L799.005 93.2846L824.475 93.2913L824.475 81.1249L900.206 124.844L1024.53 53.0703Z" fill="#797979"/>
<path d="M1024.53 52.6103L1006.53 42.2167L900.206 103.597L824.475 59.8777L824.464 -1.96283L930.002 -1.96283L929.158 -16.66L799.005 -16.66L798.994 92.8313L824.475 92.8313V80.6648L900.206 124.384L1024.53 52.6103Z" fill="#757575"/>
<path d="M1024.52 52.157L1006.52 41.7634L900.206 103.137L824.475 59.4176L824.475 -2.41612L929.99 -2.41612L929.158 -17.1201L799.005 -17.1201L799.005 92.378L824.475 92.3712L824.464 80.2115L900.194 123.931L1024.52 52.157Z" fill="#717171"/>
<path d="M1024.52 51.6967L1006.52 41.3031L900.195 102.683L824.464 58.964L824.476 -2.87645H929.99L929.158 -17.5804L799.005 -17.5804L799.005 91.9177L824.464 91.9177L824.464 79.7512L900.195 123.471L1024.52 51.6967Z" fill="#6D6D6D"/>
<path d="M1024.52 51.2365L1006.52 40.843L900.195 102.223L824.464 58.5039L824.464 -3.32979L930.002 -3.32979L929.146 -18.0337L798.994 -18.0337L799.005 91.4576L824.464 91.4576L824.476 79.2979L900.195 123.01L1024.52 51.2365Z" fill="#696969"/>
<path d="M1024.53 50.7833L1006.52 40.3829L900.195 101.763L824.464 58.0439V-3.78984L930.002 -3.78985L929.146 -18.4938L798.994 -18.4938L799.005 90.9975L824.476 91.0043L824.476 78.8378L900.206 122.557L1024.53 50.7833Z" fill="#646464"/>
<path d="M1024.53 50.323L1006.53 39.9294L900.206 101.31L824.475 57.5904L824.464 -4.25007L930.002 -4.25007L929.158 -18.9472L799.005 -18.9472L798.994 90.5441L824.475 90.5441L824.464 78.3844L900.194 122.104L1024.53 50.323Z" fill="#606060"/>
<path d="M1024.52 49.8697L1006.52 39.4761L900.206 100.85L824.475 57.1303L824.475 -4.70341L929.99 -4.70342L929.158 -19.4074L799.005 -19.4074L799.005 90.0907L824.464 90.0907L824.464 77.9242L900.195 121.644L1024.52 49.8697Z" fill="#5C5C5C"/>
<path d="M1024.52 49.4095L1006.52 39.0159L900.194 100.396L824.464 56.6769L824.475 -5.16359L929.99 -5.16358L929.158 -19.8675L799.005 -19.8675V89.6305L824.464 89.6305L824.464 77.4641L900.194 121.183L1024.52 49.4095Z" fill="#585858"/>
<path d="M1024.53 48.9562L1006.52 38.5559L900.195 99.9362L824.464 56.2169L824.464 -5.61688L930.002 -5.61687L929.146 -20.3208L798.994 -20.3208L799.005 89.1705L824.464 89.1705L824.475 77.0108L900.206 120.73L1024.53 48.9562Z" fill="#545454"/>
<path d="M1024.53 48.496L1006.52 38.0957L900.194 99.476L824.475 55.7634L824.464 -6.07707L930.001 -6.07706L929.146 -20.781H798.993L798.993 88.7171L824.475 88.7171L824.475 76.5506L900.206 120.27L1024.53 48.496Z" fill="#4F4F4F"/>
<path d="M1024.53 48.036L1006.53 37.6425L900.206 99.0228L824.475 55.3034L824.475 -6.53029L930.002 -6.53705L929.158 -21.2342L799.005 -21.2342L798.994 88.2571L824.475 88.2571L824.464 76.0974L900.194 119.817L1024.53 48.036Z" fill="#4B4B4B"/>
<path d="M1024.52 47.5826L1006.52 37.189L900.206 98.5626L824.475 54.8432L824.475 -6.99048L929.99 -6.9905L929.158 -21.6944L799.005 -21.6944L799.005 87.8036L824.464 87.8036L824.464 75.6372L900.195 119.357L1024.52 47.5826Z" fill="#474747"/>
<path d="M1024.52 47.1225L1006.52 36.7289L900.195 98.1093L824.464 54.3899L824.475 -7.45061L930.002 -7.44385L929.158 -22.1545L799.005 -22.1546L799.005 87.3435L824.464 87.3435L824.475 75.1838L900.194 118.896L1024.52 47.1225Z" fill="#434343"/>
<path d="M1024.53 46.6691L1006.52 36.2687L900.195 97.6491L824.464 53.9297L824.464 -7.90405L930.002 -7.90404L929.146 -22.608L798.994 -22.608L799.005 86.8833L824.475 86.8901L824.475 74.7236L900.206 118.443L1024.53 46.6691Z" fill="#3F3F3F"/>
<path d="M1024.53 46.209L1006.52 35.8086L900.195 97.189L824.476 53.4764L824.464 -8.36411L930.002 -8.3641L929.158 -23.0613L799.005 -23.0613L798.994 86.43L824.476 86.43L824.476 74.2636L900.206 117.983L1024.53 46.209Z" fill="#3B3B3B"/>
<path d="M1024.52 45.7556L1006.52 35.362L900.206 96.7356L824.476 53.0162L824.476 -8.81752L929.99 -8.81752L929.158 -23.5215L799.005 -23.5215L799.005 85.9766L824.476 85.9698L824.464 73.8101L900.195 117.53L1024.52 45.7556Z" fill="#363636"/>
<path d="M1024.52 45.2955L1006.52 34.9019L900.206 96.2755L824.476 52.5561V-9.27763L929.99 -9.27763L929.158 -23.9816L799.005 -23.9816V85.5165L824.464 85.5165L824.464 73.35L900.195 117.069L1024.52 45.2955Z" fill="#323232"/>
<path d="M1024.52 44.8353L1006.52 34.4417L900.195 95.8221L824.464 52.1027L824.475 -9.73777L930.002 -9.73102L929.146 -24.435L799.005 -24.4417V85.0563L824.464 85.0563L824.475 72.8967L900.194 116.609L1024.52 44.8353Z" fill="#2E2E2E"/>
<path d="M1024.53 44.382L1006.52 33.9817L900.195 95.362L824.464 51.6427L824.464 -10.1911L930.002 -10.1911L929.146 -24.895L798.994 -24.895L799.005 84.5963L824.475 84.6031L824.475 72.4366L900.206 116.156L1024.53 44.382Z" fill="#2A2A2A"/>
<path d="M1024.53 43.9218L1006.53 33.5282L900.206 94.9086L824.475 51.1892L824.464 -10.6513L930.002 -10.6513L929.158 -25.3485L799.005 -25.3485L798.994 84.1428L824.475 84.1428L824.475 71.9764L900.206 115.696L1024.53 43.9218Z" fill="#262626"/>
<path d="M1024.52 43.4684L1006.52 33.0748L900.206 94.4484L824.475 50.729L824.475 -11.1047L929.99 -11.1047L929.158 -25.8086L799.005 -25.8086V83.6894L824.475 83.6827L824.464 71.523L900.194 115.242L1024.52 43.4684Z" fill="#212121"/>
<path d="M1024.52 43.0083L1006.52 32.6147L900.195 93.9951L824.464 50.2757L824.475 -11.5648H929.99L929.158 -26.2688L799.005 -26.2687L799.005 83.2293L824.464 83.2293L824.464 71.0629L900.194 114.782L1024.52 43.0083Z" fill="#1D1D1D"/>
<path d="M1024.52 42.5481L1006.52 32.1545L900.194 93.5349L824.464 49.8155L824.464 -12.0182L930.002 -12.0182L929.146 -26.7222L798.994 -26.7222L799.005 82.7691L824.464 82.7691L824.475 70.6095L900.194 114.322L1024.52 42.5481Z" fill="#191919"/>
<path d="M1024.53 42.0948L1006.52 31.6945L900.195 93.0748L824.464 49.3555L824.464 -12.4783L930.002 -12.4783L929.146 -27.1822L798.994 -27.1822L799.005 82.3091L824.475 82.3159L824.475 70.1494L900.206 113.869L1024.53 42.0948Z" fill="#151515"/>
<path d="M1024.53 41.6347L1006.53 31.2411L900.206 92.6215L824.475 48.9021L824.464 -12.9384L930.002 -12.9384L929.158 -27.6356L799.005 -27.6356L798.994 81.8557L824.475 81.8557L824.464 69.696L900.195 113.415L1024.53 41.6347Z" fill="#111111"/>
<path d="M1024.52 41.1814L1006.52 30.7878L900.206 92.1614L824.475 48.442L824.475 -13.3917L929.99 -13.3917L929.158 -28.0956L799.005 -28.0957L799.005 81.4024L824.464 81.4024L824.464 69.236L900.194 112.955L1024.52 41.1814Z" fill="#0D0D0D"/>
<path d="M1024.52 40.7212L1006.52 30.3276L900.194 91.708L824.464 47.9886L824.475 -13.8519H929.99L929.158 -28.5558L799.005 -28.5558V80.9422L824.464 80.9422L824.464 68.7758L900.194 112.495L1024.52 40.7212Z" fill="#080808"/>
<path d="M1024.53 40.2679L1006.52 29.8675L900.195 91.2479L824.464 47.5285V-14.3052L930.002 -14.3052L929.146 -29.0092L798.994 -29.0092L799.005 80.4821L824.464 80.4821L824.475 68.3224L900.206 112.042L1024.53 40.2679Z" fill="#040404"/>
<path d="M1024.53 39.8077L1006.52 29.4074L900.194 90.7878L824.475 47.0751L824.464 -14.7654L930.001 -14.7654L929.146 -29.4693L798.993 -29.4693L798.993 80.0288L824.475 80.0288L824.475 67.8623L900.206 111.582L1024.53 39.8077Z" fill="black"/>
</g>
<path d="M1024.53 39.8077L1006.52 29.4074L900.194 90.7878L824.475 47.0751L824.464 -14.7654L930.001 -14.7654L929.146 -29.4693L798.993 -29.4693L798.993 80.0288L824.475 80.0288L824.475 67.8623L900.206 111.582L1024.53 39.8077Z" fill="white"/>
</g>
</g>
<defs>
<filter id="filter0_f_1_215" x="505" y="-92" width="905" height="846" filterUnits="userSpaceOnUse" color-interpolation-filters="sRGB">
<feFlood flood-opacity="0" result="BackgroundImageFix"/>
<feBlend mode="normal" in="SourceGraphic" in2="BackgroundImageFix" result="shape"/>
<feGaussianBlur stdDeviation="125" result="effect1_foregroundBlur_1_215"/>
</filter>
<filter id="filter1_f_1_215" x="799" y="-337" width="767" height="728" filterUnits="userSpaceOnUse" color-interpolation-filters="sRGB">
<feFlood flood-opacity="0" result="BackgroundImageFix"/>
<feBlend mode="normal" in="SourceGraphic" in2="BackgroundImageFix" result="shape"/>
<feGaussianBlur stdDeviation="125" result="effect1_foregroundBlur_1_215"/>
</filter>
<clipPath id="clip0_1_215">
<rect width="1280" height="306" rx="15" fill="white"/>
</clipPath>
</defs>
</svg>
