<svg width="634" height="450" viewBox="0 0 634 450" fill="none" xmlns="http://www.w3.org/2000/svg">
<g clip-path="url(#clip0_2_1119)">
<rect width="634" height="450" rx="15" fill="#FF8C5A"/>
<circle cx="282" cy="431" r="218" fill="black"/>
<path fill-rule="evenodd" clip-rule="evenodd" d="M270.228 253.611C274.066 252.055 278.057 250.875 281.412 250.875C284.745 250.875 288.786 252.042 292.704 253.588C296.834 255.217 301.569 257.57 306.517 260.553C316.392 266.504 327.506 275.197 336.593 286.217C339.547 289.799 341.217 294.118 341.617 298.589C343.496 319.569 343.913 357.65 343.873 390.195C343.853 406.531 343.716 421.572 343.586 432.529L343.566 434.208H355.025L355.044 432.664C355.174 421.679 355.311 406.595 355.331 390.208C355.361 365.923 355.14 338.176 354.216 316.703C365.56 318.212 374.286 327.484 374.866 339.156C375.405 350.008 375.958 366.565 375.958 388.828V434.208H378.25C384.578 434.208 389.708 439.338 389.708 445.667C389.708 451.995 384.578 457.125 378.25 457.125H185.75C179.422 457.125 174.292 451.995 174.292 445.667C174.292 439.338 179.422 434.208 185.75 434.208H188.042V388.828C188.042 366.565 188.595 350.008 189.134 339.156C189.714 327.483 198.44 318.212 209.784 316.702C208.86 338.175 208.639 365.922 208.669 390.208C208.689 406.595 208.826 421.679 208.957 432.664L208.975 434.208H220.434L220.414 432.529C220.284 421.572 220.148 406.531 220.128 390.195C220.087 357.65 220.504 319.569 222.383 298.589C222.784 294.114 224.456 289.807 227.385 286.229C236.378 275.249 247.167 266.563 256.77 260.599C261.579 257.613 266.185 255.25 270.228 253.611ZM302.625 413.578V434.208H261.375V413.578C261.375 402.186 270.61 392.958 282 392.958C293.39 392.958 302.625 402.186 302.625 413.578ZM282 282.958C273.14 282.958 265.958 290.14 265.958 299C265.958 307.86 273.14 315.042 282 315.042C290.86 315.042 298.042 307.86 298.042 299C298.042 290.14 290.86 282.958 282 282.958ZM263.667 324.208C267.464 324.208 270.542 327.286 270.542 331.083V340.25C270.542 344.047 267.464 347.125 263.667 347.125C259.87 347.125 256.792 344.047 256.792 340.25V331.083C256.792 327.286 259.87 324.208 263.667 324.208ZM270.542 363.167C270.542 359.37 267.464 356.292 263.667 356.292C259.87 356.292 256.792 359.37 256.792 363.167V372.333C256.792 376.13 259.87 379.208 263.667 379.208C267.464 379.208 270.542 376.13 270.542 372.333V363.167ZM300.333 324.208C304.13 324.208 307.208 327.286 307.208 331.083V340.25C307.208 344.047 304.13 347.125 300.333 347.125C296.537 347.125 293.458 344.047 293.458 340.25V331.083C293.458 327.286 296.537 324.208 300.333 324.208ZM307.208 363.167C307.208 359.37 304.13 356.292 300.333 356.292C296.537 356.292 293.458 359.37 293.458 363.167V372.333C293.458 376.13 296.537 379.208 300.333 379.208C304.13 379.208 307.208 376.13 307.208 372.333V363.167Z" fill="white"/>
<path d="M478.393 355.227L467.111 384.911C467.111 384.911 460.02 455.651 464.588 497.95C466.501 515.638 506.349 610.178 506.349 610.178L525.879 607.281L499.113 495.22L508.523 452.266L521.708 367.384L478.404 355.233L478.393 355.227Z" fill="#434343"/>
<path d="M532.289 356.488L542.278 389.425L557.729 488.909L608.699 581.778C608.699 581.778 601.168 593.469 593.032 595.348L520.893 501.594L481.444 383.956L482.667 357.769L532.295 356.488L532.289 356.488Z" fill="#1D1D1D"/>
<path d="M485.742 334.708C486.697 332.133 496.159 281.166 496.159 281.166L471.969 283.853L465.137 326.995C456.578 323.115 449.405 319.855 449.405 319.855C449.405 319.855 435.206 313.519 434.585 312.543C434.06 311.717 435.324 311.313 431.409 304.766C430.279 302.874 427.488 301.337 427.488 301.337C427.488 301.337 424.041 299.469 423.367 300.127C422.693 300.786 422.833 301.961 423.318 302.535C423.808 303.109 425.267 303.69 425.757 304.269C426.247 304.843 426.086 307.196 425.715 307.97C425.344 308.745 415.364 302.913 415.364 302.913C415.364 302.913 412.583 301.108 411.706 300.441C410.958 299.868 408.854 297.987 408.854 297.987C408.854 297.987 405.155 295.162 404.422 296.151C403.515 297.365 415.353 307.286 414.976 307.926C414.515 308.707 408.967 305.629 408.967 305.629C408.967 305.629 406.689 303.597 405.438 303.049C404.249 301.572 401.199 299.791 400.388 301.055C400.238 301.291 403.504 304.711 403.504 304.711C403.504 304.711 405.725 306.581 406.727 307.533C408.494 309.22 411.733 310.838 413.015 311.884C414.083 312.752 413.468 312.816 413.463 312.968C413.464 313.085 411.874 312.147 409.678 310.899C408.572 310.267 407.192 309.792 406.017 308.864C404.932 308.002 403.27 307.03 402.259 306.47C399.384 304.884 398.885 306.925 401.319 308.832C402.247 309.555 403.265 310.339 404.293 311.124C408.313 314.187 412.606 316.13 412.435 316.635C412.215 317.291 404.59 313.289 404.59 313.289C404.59 313.289 399.86 312.278 403.463 315.086C407.64 318.345 411.484 319.965 411.658 320.032C412.836 320.451 416.546 323.153 420.867 323.981C425.188 324.809 432.114 325.903 432.114 325.903C435.517 327.806 463.415 344.601 480.247 354.367L492.463 339.336C491.06 338.716 488.349 337.493 484.948 335.96C485.404 335.325 485.682 334.893 485.753 334.708L485.742 334.708Z" fill="white"/>
<path d="M467.164 298.469L495.033 301.205C495.033 301.205 496.188 278.053 496.129 267.012C496.059 253.62 494.196 236.945 492.602 237.323C488.129 238.388 482.759 240.354 479.191 245.372C466.853 262.744 467.164 298.469 467.164 298.469Z" fill="black"/>
<path d="M528.107 235.557C528.107 235.557 542.859 237.528 546.76 240.357C551.149 243.543 559.369 256.298 559.369 256.298C559.369 256.298 537.019 339.286 538.181 353.635C539.348 367.985 542.551 389.233 542.551 389.233C542.551 389.233 487.864 392.976 467.105 384.905C467.105 384.905 473.478 352.336 473.433 343.798C473.388 335.26 476.611 249.854 479.202 245.367C481.793 240.879 487.053 238.31 497.036 236.073C507.018 233.837 528.113 235.546 528.113 235.546L528.107 235.557Z" fill="black"/>
<path d="M523.954 212.539L527.731 236.416C527.731 236.416 515.09 256.873 507.121 254.446C500.436 252.41 503.873 235.282 503.873 235.282C503.873 235.282 505.119 230.544 505.909 225.277C506.455 221.64 506.776 217.742 506.314 214.984C505.186 208.226 523.96 212.539 523.96 212.539L523.954 212.539Z" fill="white"/>
<path d="M506.314 214.978C505.186 208.221 523.96 212.534 523.96 212.534L524.273 214.514C523.731 215.844 523.065 216.978 522.258 217.856C518.094 222.357 511.563 225.079 505.904 225.31C506.45 221.657 506.776 217.747 506.314 214.978Z" fill="#EAE8E8"/>
<path d="M526.855 178.718C527.386 178.524 531.248 205.911 524.234 213.49C517.219 221.068 503.487 223.61 498.523 217.696C493.035 211.157 493.154 181.7 504.081 173.883C515.009 166.065 526.855 178.718 526.855 178.718Z" fill="black"/>
<path d="M511.531 161.778C520.017 163.452 533.308 170.688 538.757 179.545C545.461 190.439 540.614 202.569 532.914 208.55C525.213 214.531 525.334 221.423 525.334 221.423L524.111 217.846C523.195 215.164 522.811 212.316 523.098 209.492C523.269 207.801 523.623 205.968 524.32 204.458C526.158 200.484 520.288 197.878 518.63 194.584C517.351 192.048 517.259 186.237 515.249 182.049L512.853 178.853C512.853 178.853 507.478 175.634 501.981 175.865C498.667 176.005 500.641 159.629 511.526 161.772L511.531 161.778Z" fill="white"/>
<path d="M519.026 199.464C518.987 202.806 520.53 205.536 522.473 205.56C524.416 205.583 526.025 202.887 526.064 199.544C526.102 196.201 524.559 193.472 522.616 193.448C520.673 193.425 519.064 196.121 519.026 199.464Z" fill="white"/>
<path d="M546.405 293C546.405 293 565.746 326.442 566.757 335.383C567.761 344.325 570.931 397.649 570.931 397.649C570.931 397.649 567.206 420.681 569.137 422.585C571.062 424.49 576.489 423.823 578.092 424.134C579.275 424.363 583.091 423.878 584.987 423.61C585.698 423.511 586.385 423.312 587.039 423.017L589.664 421.783C589.664 421.783 584.046 400.105 584.194 398.526C584.337 396.946 588.497 337.503 585.882 325.697C583.266 313.892 565.802 274.371 565.802 274.371L546.416 293L546.405 293Z" fill="white"/>
<path d="M578.987 295.488L553.303 309.039C553.303 309.039 544.824 289.538 539.299 278.016C533.7 266.355 541.248 238.92 547.152 240.473C560.351 243.948 578.987 295.488 578.987 295.488Z" fill="black"/>
<path d="M502.953 325.561C502.555 324.432 503.071 323.21 504.107 322.844L536.355 311.46C537.391 311.094 538.558 311.715 538.959 312.851L559.055 369.779L564.767 367.763L544.671 310.834C543.055 306.258 538.337 303.744 534.152 305.221L501.904 316.605C497.72 318.082 495.628 323.007 497.241 327.578L517.338 384.506L523.05 382.49L502.953 325.561Z" fill="white"/>
<path d="M638.323 519.779L559.621 542.692C555.495 544.148 550.914 541.817 549.385 537.486L493.605 402.783C489.989 393.266 500.337 387.901 504.463 386.445L588.443 356.798C592.569 355.342 597.15 357.674 598.679 362.005L648.3 502.567C650.907 509.841 645.418 517.13 638.323 519.779Z" fill="black"/>
<path d="M498.836 393.289L582.441 363.775C586.666 362.283 591.307 364.502 592.798 368.728L642.553 509.67C644.045 513.896 641.826 518.536 637.601 520.028L553.99 549.544C549.765 551.035 545.124 548.817 543.633 544.591L493.88 403.654C492.388 399.429 494.607 394.788 498.832 393.297L498.836 393.289Z" fill="#FF8C5A"/>
<path d="M550.703 428.753L565.182 423.642C578.116 419.076 592.323 425.869 596.889 438.803L626.892 523.795L565.539 545.454L535.536 460.462C530.97 447.528 537.763 433.322 550.697 428.756L550.703 428.753Z" fill="black"/>
<path d="M539.529 367.438C547.301 364.694 555.102 365.817 556.832 369.86L563.065 367.659C560.426 360.929 549.245 358.716 537.868 362.732C526.491 366.749 519.179 375.497 521.348 382.386L527.581 380.186C526.39 375.953 531.757 370.181 539.529 367.438Z" fill="#FF8C5A"/>
<path d="M504.094 314.417L531.455 304.758C533.017 304.206 534.736 305.028 535.287 306.591L536.099 308.891C536.651 310.453 535.829 312.172 534.267 312.723L506.906 322.382C505.343 322.934 503.625 322.112 503.073 320.55L502.261 318.25C501.709 316.687 502.531 314.969 504.094 314.417Z" fill="#FF8C5A"/>
<g filter="url(#filter0_f_2_1119)">
<ellipse cx="656.5" cy="-23" rx="202.5" ry="173" fill="#FFB1B1"/>
</g>
<circle cx="577.5" cy="234.5" r="12.5" fill="black"/>
<circle cx="460.5" cy="219.5" r="6.5" fill="black"/>
<circle cx="562.5" cy="189.5" r="4.5" fill="black"/>
</g>
<defs>
<filter id="filter0_f_2_1119" x="204" y="-446" width="905" height="846" filterUnits="userSpaceOnUse" color-interpolation-filters="sRGB">
<feFlood flood-opacity="0" result="BackgroundImageFix"/>
<feBlend mode="normal" in="SourceGraphic" in2="BackgroundImageFix" result="shape"/>
<feGaussianBlur stdDeviation="125" result="effect1_foregroundBlur_2_1119"/>
</filter>
<clipPath id="clip0_2_1119">
<rect width="634" height="450" rx="15" fill="white"/>
</clipPath>
</defs>
</svg>
