<svg width="1920" height="467" viewBox="0 0 1920 467" fill="none" xmlns="http://www.w3.org/2000/svg">
<g clip-path="url(#clip0_1_645)">
<path d="M1696.95 264.641L1688.5 266.932L1683.31 253.744L1670.54 255.58L1665.03 246.342L1660.36 249.125L1667.72 261.476L1679.82 259.743L1685.23 273.459L1697.94 270.008L1696.95 264.641Z" fill="black"/>
<path d="M1916.38 148.052L1924.34 151.702L1919.89 165.154L1930.86 171.924L1929.18 182.541L1934.55 183.393L1936.81 169.199L1926.41 162.782L1931.03 148.786L1919.06 143.294L1916.38 148.052Z" fill="black"/>
<path d="M1966.78 207.029L1954.49 209.783L1951.74 222.332L1937.74 224.439L1938.93 238.713L1923.2 241.79L1922.68 255.073L1908.03 260.507L1905.96 254.963L1916.92 250.895L1917.47 236.885L1932.6 233.926L1931.38 219.409L1946.83 217.089L1949.52 204.827L1960.92 202.279L1961 193.864L1966.91 193.915L1966.78 207.029Z" fill="white"/>
<path d="M1916.55 373.967L1909.35 363.548L1896.68 363.577C1895.24 363.577 1894.42 361.925 1895.3 360.78L1902.98 350.713L1899.03 338.678C1898.58 337.305 1899.9 336.02 1901.26 336.497L1913.22 340.69L1923.45 333.222C1924.61 332.37 1926.24 333.222 1926.22 334.669L1925.92 347.328L1936.19 354.751C1937.35 355.596 1937.05 357.417 1935.67 357.828L1923.54 361.462L1919.65 373.519C1919.21 374.892 1917.38 375.164 1916.56 373.974L1916.55 373.967Z" fill="#FF8C5A"/>
<path d="M1773.03 173.869L1763.32 159.823L1746.24 159.859C1744.3 159.859 1743.2 157.635 1744.37 156.093L1754.73 142.516L1749.41 126.288C1748.81 124.438 1750.58 122.698 1752.42 123.344L1768.53 128.998L1782.32 118.931C1783.89 117.785 1786.09 118.931 1786.05 120.884L1785.65 137.956L1799.49 147.964C1801.07 149.102 1800.65 151.555 1798.78 152.113L1782.42 157.01L1777.18 173.26C1776.58 175.11 1774.12 175.47 1773.02 173.877L1773.03 173.869Z" fill="#FF8C5A"/>
<path d="M1797.72 320.526L1778.61 318.404L1766.03 332.943C1764.6 334.595 1761.89 333.89 1761.45 331.746L1757.56 312.919L1739.85 305.452C1737.83 304.6 1737.67 301.802 1739.57 300.723L1756.27 291.207L1757.9 272.05C1758.09 269.869 1760.69 268.848 1762.32 270.324L1776.53 283.269L1795.25 278.9C1797.38 278.401 1799.16 280.567 1798.26 282.564L1790.34 300.077L1800.28 316.532C1801.41 318.404 1799.91 320.761 1797.72 320.526H1797.72Z" fill="black"/>
<path d="M1664.49 98.4959L1665.77 82.6355L1653.43 72.5906C1652.03 71.4451 1652.54 69.1909 1654.31 68.765L1669.78 65.0789L1675.53 50.2392C1676.18 48.5504 1678.49 48.3448 1679.43 49.8868L1687.72 63.4709L1703.6 64.3447C1705.41 64.4475 1706.32 66.5769 1705.15 67.95L1694.79 80.0288L1698.87 95.4046C1699.33 97.1595 1697.58 98.6794 1695.92 97.9819L1681.23 91.8654L1667.87 100.493C1666.35 101.477 1664.36 100.288 1664.5 98.4812L1664.49 98.4959Z" fill="white"/>
<path d="M1582.46 180.595L1581.41 171.696L1595.54 168.428L1595.62 155.233L1605.8 151.063L1603.68 145.908L1590.07 151.489L1590 163.993L1575.3 167.393L1576.87 180.779L1582.46 180.595Z" fill="#FF8C5A"/>
<path d="M1856.52 13.7383C1861.38 25.193 1858.26 75.5424 1858.26 75.5424C1858.26 75.5424 1819.9 42.7863 1815.04 31.3316C1810.18 19.8769 1815.53 6.65255 1826.99 1.79164C1838.44 -3.06927 1851.66 2.2836 1856.53 13.7383H1856.52Z" fill="black"/>
<path d="M1843.46 19.2748C1845.26 23.5189 1843.28 28.4165 1839.03 30.2155C1834.79 32.0145 1829.89 30.0319 1828.09 25.7878C1826.3 21.5437 1828.28 16.646 1832.52 14.8471C1836.77 13.0481 1841.66 15.0306 1843.46 19.2748Z" fill="white"/>
<path d="M1557.81 327.847C1548.17 325.395 1555.9 295.436 1565.44 297.867L1564.26 302.485C1564.32 302.5 1564.36 302.5 1564.38 302.5C1563.53 302.632 1560.71 305.709 1559.06 312.207C1557.4 318.698 1558.41 322.759 1559.09 323.273C1559.08 323.265 1559.04 323.243 1558.98 323.229L1557.81 327.847Z" fill="#FF8C5A"/>
<path d="M1568.81 336.446L1579.17 351.19L1578.13 355.478L1583.48 357.549L1588.46 364.407L1591.69 364.972L1591.13 368.203L1596.08 375.245L1594.93 381.795L1587.93 381.618L1559.97 341.843C1559.97 341.843 1568.73 336.335 1568.8 336.446H1568.81Z" fill="white"/>
<path d="M1551.4 320.666C1543.62 326.136 1541.75 336.879 1547.22 344.662C1552.69 352.445 1563.43 354.318 1571.21 348.848C1579 343.377 1580.87 332.635 1575.4 324.851C1569.93 317.068 1559.19 315.196 1551.4 320.666ZM1559.94 332.804C1557.43 334.573 1553.99 334.015 1552.26 331.563C1550.54 329.11 1551.18 325.688 1553.69 323.919C1556.21 322.149 1559.64 322.707 1561.37 325.16C1563.09 327.612 1562.45 331.034 1559.94 332.804Z" fill="white"/>
<path d="M1608.77 257.144L1559.93 291.478C1557.07 293.49 1556.38 297.478 1558.38 300.341L1563.46 307.566C1565.47 310.43 1569.46 311.12 1572.32 309.108L1621.16 274.781C1624.02 272.769 1624.71 268.782 1622.71 265.918L1617.63 258.693C1615.62 255.829 1611.63 255.139 1608.77 257.144ZM1567.23 302.294C1565.91 303.22 1564.09 302.904 1563.17 301.589C1562.24 300.275 1562.56 298.454 1563.87 297.529C1565.19 296.604 1567.01 296.919 1567.93 298.241C1568.86 299.556 1568.54 301.377 1567.22 302.302L1567.23 302.294Z" fill="black"/>
<path d="M1565.44 297.867C1564.39 297.602 1563.34 298.065 1562.81 298.939C1562.51 299.791 1562.61 300.774 1563.17 301.575C1563.45 301.964 1563.79 302.258 1564.18 302.463C1564.86 303.073 1565.81 307.104 1564.19 313.507C1562.56 319.902 1559.8 322.994 1558.9 323.207C1557.65 322.935 1556.4 323.699 1556.07 324.947C1555.28 328.082 1560.41 330.182 1564.72 324.08C1569 318.037 1571.63 305.569 1568.44 300.224C1567.73 299.042 1566.74 298.204 1565.42 297.867H1565.44Z" fill="#FF8C5A"/>
<path d="M1514.65 258.157L1449.37 253.891C1444.27 253.56 1440.41 249.155 1440.74 244.059L1524.48 249.529C1524.15 254.625 1519.74 258.487 1514.65 258.157H1514.65Z" fill="white"/>
<path d="M1519.68 216.729C1512.37 216.252 1506.11 220.555 1505.74 226.319C1505.36 232.083 1511 237.164 1518.31 237.641C1525.62 238.119 1531.87 233.816 1532.25 228.052C1532.62 222.288 1526.98 217.206 1519.68 216.729ZM1518.62 232.927C1513.99 232.626 1510.25 229.741 1510.45 226.627C1510.66 223.514 1514.74 221.142 1519.37 221.443C1523.99 221.744 1527.74 224.63 1527.53 227.743C1527.33 230.857 1523.24 233.228 1518.62 232.927Z" fill="white"/>
<path d="M1517.78 207.294C1516.06 233.566 1499.51 253.869 1480.81 252.643C1462.1 251.424 1448.33 229.138 1450.04 202.866C1450.26 199.532 1465.6 197.822 1484.31 199.04C1503.02 200.259 1517.99 203.953 1517.78 207.286V207.294Z" fill="white"/>
<path d="M1517.78 207.294C1517.56 210.627 1502.23 212.338 1483.52 211.119C1464.81 209.9 1449.83 206.207 1450.04 202.873C1450.26 199.54 1465.6 197.829 1484.31 199.048C1503.02 200.267 1517.99 203.96 1517.78 207.294Z" fill="black"/>
<path d="M1486.54 405.6L1417.24 408.596C1409.06 408.948 1402.15 402.611 1401.8 394.431L1400.11 355.405C1399.76 347.232 1406.11 340.315 1414.28 339.963L1483.58 336.967C1491.75 336.614 1498.67 342.959 1499.02 351.131L1500.71 390.158C1501.06 398.33 1494.73 405.247 1486.55 405.6H1486.54Z" fill="white"/>
<path d="M1403.96 374.452L1376 405.996L1412.03 397.361L1403.96 374.452Z" fill="white"/>
<path d="M1476.9 369.708C1478.41 382.411 1469.34 393.932 1456.65 395.445C1443.95 396.957 1432.42 387.882 1430.91 375.186C1429.4 362.483 1438.46 350.962 1451.16 349.45C1463.86 347.937 1475.38 357.013 1476.9 369.708Z" fill="black"/>
<path d="M1442.04 377.55C1442.85 384.342 1449.01 389.189 1455.8 388.381C1462.59 387.573 1467.44 381.413 1466.63 374.621L1442.04 377.55Z" fill="white"/>
</g>
<g clip-path="url(#clip1_1_645)">
<path d="M58.9524 264.641L50.5008 266.932L45.3095 253.744L32.5404 255.58L27.0334 246.342L22.3633 249.125L29.7208 261.476L41.8217 259.743L47.226 273.459L59.9436 270.008L58.9524 264.641Z" fill="black"/>
<path d="M278.376 148.052L286.336 151.702L281.886 165.154L292.863 171.924L291.182 182.541L296.55 183.393L298.811 169.199L288.406 162.782L293.032 148.786L281.056 143.294L278.376 148.052Z" fill="black"/>
<path d="M328.784 207.029L316.493 209.783L313.739 222.332L299.736 224.439L300.926 238.713L285.198 241.79L284.676 255.073L270.027 260.507L267.964 254.963L278.92 250.895L279.47 236.885L294.596 233.926L293.377 219.409L308.834 217.089L311.521 204.827L322.917 202.279L322.998 193.864L328.909 193.915L328.784 207.029Z" fill="white"/>
<path d="M278.552 373.967L271.349 363.548L258.683 363.577C257.244 363.577 256.421 361.925 257.295 360.78L264.976 350.713L261.033 338.678C260.585 337.305 261.899 336.02 263.265 336.497L275.219 340.69L285.447 333.222C286.615 332.37 288.245 333.222 288.216 334.669L287.922 347.328L298.187 354.751C299.355 355.596 299.046 357.417 297.666 357.828L285.535 361.462L281.651 373.519C281.211 374.892 279.382 375.164 278.56 373.974L278.552 373.967Z" fill="#FF8C5A"/>
<path d="M135.031 173.869L125.316 159.823L108.244 159.859C106.298 159.859 105.197 157.635 106.372 156.093L116.725 142.516L111.409 126.288C110.807 124.438 112.584 122.698 114.42 123.344L130.53 128.998L144.319 118.931C145.891 117.785 148.094 118.931 148.049 120.884L147.653 137.956L161.487 147.964C163.065 149.102 162.647 151.555 160.782 152.113L144.422 157.01L139.179 173.26C138.585 175.11 136.125 175.47 135.016 173.877L135.031 173.869Z" fill="#FF8C5A"/>
<path d="M159.717 320.526L140.611 318.404L128.033 332.943C126.601 334.595 123.892 333.89 123.451 331.746L119.56 312.919L101.849 305.452C99.8295 304.6 99.668 301.802 101.57 300.723L118.275 291.207L119.905 272.05C120.088 269.869 122.695 268.848 124.318 270.324L138.526 283.269L157.25 278.9C159.379 278.401 161.156 280.567 160.26 282.564L152.338 300.077L162.28 316.532C163.411 318.404 161.905 320.761 159.724 320.526H159.717Z" fill="black"/>
<path d="M481.83 117.719L485.163 109.995L480.692 102.872C480.185 102.064 480.824 101.014 481.778 101.11L490.156 101.896L495.553 95.4413C496.17 94.707 497.36 94.9934 497.565 95.9259L499.408 104.135L507.214 107.27C508.102 107.63 508.198 108.849 507.375 109.334L500.135 113.622L499.562 122.015C499.496 122.969 498.366 123.439 497.646 122.808L491.331 117.249L483.173 119.298C482.248 119.533 481.448 118.6 481.83 117.719Z" fill="#FF8C5A"/>
<path d="M26.49 98.4959L27.7676 82.6355L15.4317 72.5906C14.0293 71.4451 14.5432 69.1909 16.3055 68.765L31.7841 65.0789L37.5261 50.2392C38.1796 48.5504 40.4852 48.3448 41.4325 49.8868L49.7225 63.4709L65.6049 64.3447C67.4112 64.4475 68.3217 66.5769 67.1469 67.95L56.7935 80.0288L60.8688 95.4046C61.3314 97.1595 59.5838 98.6794 57.917 97.9819L43.2315 91.8654L29.8676 100.493C28.3477 101.477 26.3578 100.288 26.5046 98.4812L26.49 98.4959Z" fill="white"/>
<path d="M402.888 229.014L412.455 216.333L407.433 201.265C406.86 199.547 408.505 197.924 410.216 198.512L425.232 203.696L438.015 194.268C439.469 193.196 441.525 194.253 441.496 196.067L441.21 211.949L454.125 221.186C455.594 222.236 455.219 224.52 453.494 225.048L438.302 229.682L433.507 244.823C432.964 246.548 430.673 246.893 429.637 245.417L420.54 232.399L404.657 232.516C402.851 232.531 401.808 230.46 402.902 229.021L402.888 229.014Z" fill="black"/>
<path d="M532.179 389.71L532.392 398.668L518.015 400.607L516.715 413.743L506.193 416.952L507.816 422.275L521.892 417.987L523.125 405.534L538.075 403.522L537.752 390.04L532.179 389.71Z" fill="black"/>
<path d="M480.464 345.822L400.839 362.564C391.448 364.539 382.225 358.87 380.25 349.898L370.8 307.082C368.817 298.116 374.831 289.239 384.222 287.264L463.847 270.522C473.239 268.547 482.461 274.216 484.436 283.189L493.887 326.004C495.869 334.97 489.855 343.847 480.464 345.822Z" fill="#FF8C5A"/>
<path d="M378.921 327.392L352.626 367.674L392.659 351.146L378.921 327.392Z" fill="#FF8C5A"/>
<path d="M408.387 316.106L418.528 313.712C418.528 313.712 429.263 301.773 428.918 298.454C428.573 295.135 424.901 288.747 426.693 287.462C428.484 286.17 432.545 284.576 436.187 288.277C438.83 290.964 439.822 302.662 441.187 303.153C442.047 303.462 447.913 302.25 452.187 301.296C454.999 300.664 457.922 301.582 459.779 303.667C461.035 305.085 461.086 307.155 459.897 308.631L458.039 310.937L460.345 312.817C462.063 314.212 462.269 316.686 460.8 318.353L459.309 320.049L460.844 321.114C462.819 322.487 463.091 325.211 461.431 326.951L460.08 328.361L460.418 328.728C461.813 330.263 461.74 332.576 460.257 334.052L458.891 335.41L431.877 341.776C429.344 342.371 426.722 342.467 424.16 342.055L414.284 342.797C413.226 342.878 412.264 342.202 412.037 341.211L406.787 318.559C406.53 317.465 407.242 316.37 408.387 316.099V316.106Z" fill="white"/>
<path d="M400.105 74.9476L400.854 90.5583L415.414 90.8227L416.824 106.169L430.709 108.137L433.639 119.445L439.366 117.962L435.445 102.835L422.287 100.97L420.819 85.0072L406.5 84.7429L405.825 70.6007L400.105 74.9476Z" fill="white"/>
<path d="M218.518 13.7383C223.379 25.193 220.258 75.5424 220.258 75.5424C220.258 75.5424 181.9 42.7863 177.039 31.3316C172.178 19.8769 177.531 6.65255 188.985 1.79164C200.44 -3.06927 213.664 2.2836 218.525 13.7383H218.518Z" fill="black"/>
<path d="M205.463 19.2748C207.262 23.5189 205.279 28.4165 201.035 30.2155C196.791 32.0145 191.893 30.0319 190.094 25.7878C188.295 21.5437 190.278 16.646 194.522 14.8471C198.766 13.0481 203.664 15.0306 205.463 19.2748Z" fill="white"/>
</g>
<defs>
<clipPath id="clip0_1_645">
<rect width="544" height="467" fill="white" transform="translate(1376)"/>
</clipPath>
<clipPath id="clip1_1_645">
<rect width="538" height="467" fill="white"/>
</clipPath>
</defs>
</svg>
