<svg width="26" height="26" viewBox="0 0 26 26" fill="none" xmlns="http://www.w3.org/2000/svg">
<path d="M17.4918 13.837C16.3823 11.9088 14.4924 10.7584 12.4357 10.7584C10.379 10.7584 8.49004 11.9099 7.37966 13.837L4.70553 18.4826C4.26157 19.253 4.05703 20.1442 4.11359 21.0574C4.17014 21.9705 4.48214 22.8218 5.01659 23.5177C5.55104 24.2136 6.25704 24.6891 7.05918 24.8927C7.86133 25.0963 8.68232 25.0092 9.43545 24.6408L9.48541 24.6156C11.38 23.7066 13.5452 23.715 15.435 24.6408C15.9224 24.879 16.4389 24.9997 16.9602 24.9997C17.2439 24.9997 17.5285 24.9641 17.8113 24.8927C18.6135 24.6891 19.3195 24.2136 19.8539 23.5177C20.3884 22.8218 20.7004 21.9705 20.7569 21.0574C20.8135 20.1442 20.6089 19.253 20.165 18.4826L17.4908 13.838L17.4918 13.837Z" fill="white" stroke="black" stroke-width="2" stroke-miterlimit="10"/>
<path d="M4.64805 12.0862C5.30409 11.8059 5.80178 11.2171 6.05063 10.4298C6.28722 9.68041 6.26836 8.83336 5.99595 8.04614C5.72355 7.25892 5.22869 6.61655 4.60092 6.23764C3.94205 5.83878 3.21814 5.7737 2.56398 6.055C1.24718 6.61865 0.642986 8.43031 1.21702 10.095C1.67607 11.4196 2.74496 12.2562 3.82706 12.2562C4.10324 12.2562 4.38035 12.2016 4.64805 12.0872V12.0862Z" fill="white" stroke="black" stroke-width="2" stroke-miterlimit="10"/>
<path d="M10.1189 8.57515C11.7646 8.57515 13.104 6.8758 13.104 4.7881C13.104 2.70039 11.7646 1 10.1189 1C8.47309 1 7.13367 2.69934 7.13367 4.7881C7.13367 6.87685 8.47309 8.57515 10.1189 8.57515Z" fill="white" stroke="black" stroke-width="2" stroke-miterlimit="10"/>
<path d="M16.5605 9.50509C16.8141 9.59851 17.0723 9.64364 17.3297 9.64364C18.5305 9.64364 19.7003 8.67064 20.1461 7.17492C20.4035 6.31423 20.3865 5.4042 20.0981 4.61279C19.7974 3.78358 19.2384 3.18215 18.5268 2.91869C17.8142 2.65523 17.0441 2.76544 16.3569 3.22833C15.7009 3.67022 15.1985 4.38817 14.9411 5.24886C14.3992 7.06471 15.1249 8.97398 16.5596 9.50509H16.5605Z" fill="white" stroke="black" stroke-width="2" stroke-miterlimit="10"/>
<path d="M24.0418 9.57548C22.9069 8.64132 21.2093 9.04542 20.2573 10.4782C19.3062 11.9109 19.4551 13.8359 20.5881 14.7711C21.0019 15.1123 21.4902 15.275 21.9898 15.275C22.8607 15.275 23.7675 14.7795 24.3736 13.8695C25.3247 12.4368 25.1757 10.5118 24.0418 9.57653V9.57548Z" fill="white" stroke="black" stroke-width="2" stroke-miterlimit="10"/>
</svg>
