<svg width="24" height="24" viewBox="0 0 24 24" fill="none" xmlns="http://www.w3.org/2000/svg">
<g clip-path="url(#clip0_8_1060)">
<path d="M3.90067 0.755654C2.03263 0.399751 0.399994 2.03239 0.755898 3.90042C2.24143 11.6976 4.04211 16.8799 5.06665 19.4468C5.64745 20.9019 7.34225 21.4731 8.6836 20.6555C9.55145 20.1265 10.6693 19.396 11.8805 18.4811L14.3837 21.7547C15.3417 23.0074 17.1193 23.5969 18.5753 22.5664C19.1999 22.1243 19.9334 21.5272 20.7304 20.7302C21.5274 19.9332 22.1245 19.1997 22.5666 18.575C23.5971 17.119 23.0076 15.3414 21.7549 14.3834L18.4814 11.8802C19.3963 10.6691 20.1267 9.55115 20.6557 8.68335C21.4733 7.342 20.9021 5.6472 19.447 5.0664C16.8801 4.04186 11.6978 2.24119 3.90067 0.755654Z" fill="#FF8C5A"/>
</g>
<defs>
<clipPath id="clip0_8_1060">
<rect width="24" height="24" fill="white"/>
</clipPath>
</defs>
</svg>
