<svg width="19" height="22" viewBox="0 0 19 22" fill="none" xmlns="http://www.w3.org/2000/svg">
<path d="M9.25 5.93258C10.9069 5.93258 12.25 4.60453 12.25 2.96629C12.25 1.32805 10.9069 0 9.25 0C7.59315 0 6.25 1.32805 6.25 2.96629C6.25 4.60453 7.59315 5.93258 9.25 5.93258Z" fill="#FF8C5A"/>
<path d="M3.7705 10.8809C4.6952 10.8793 5.85205 10.8778 7.25005 10.8771V9.8878C7.25005 8.79566 8.14545 7.91027 9.25005 7.91027C10.3546 7.91027 11.25 8.79566 11.25 9.8878V10.8771C12.648 10.8778 13.8049 10.8793 14.7296 10.8809C14.561 9.88622 14.3406 9.06312 14.1497 8.45978C13.8928 7.6479 13.2341 7.03754 12.3717 6.89575C11.6692 6.78021 10.6449 6.67432 9.25025 6.67432C7.85555 6.67432 6.83115 6.78021 6.12855 6.89575C5.26605 7.03754 4.60725 7.64795 4.35035 8.45992C4.15945 9.06332 3.9391 9.88632 3.7705 10.8809Z" fill="#FF8C5A"/>
<path d="M10 9.88757C10 9.47802 9.6642 9.146 9.25 9.146C8.8358 9.146 8.5 9.47802 8.5 9.88757V12.1126C4.3161 12.1157 1.93953 12.1446 1.19046 12.1554C0.7958 12.1611 0.291815 12.3779 0.125055 12.9216C0.0560551 13.1466 0 13.4509 0 13.8426C0 14.2344 0.0560551 14.5386 0.125055 14.7636C0.29182 15.3074 0.795805 15.5241 1.19046 15.5298C1.27381 15.531 1.3773 15.5324 1.50118 15.5341C1.78535 17.8635 2.04144 19.6615 2.17046 20.5367C2.27145 21.2217 2.8399 21.7462 3.5426 21.7922C4.6206 21.8628 7.00125 21.9999 9.25 21.9999C11.4987 21.9999 13.8794 21.8628 14.9574 21.7922C15.6601 21.7462 16.2285 21.2217 16.3295 20.5367C16.4585 19.6615 16.7147 17.8635 16.9988 15.5341C17.1227 15.5324 17.2262 15.531 17.3095 15.5298C17.7042 15.5241 18.2082 15.3074 18.375 14.7636C18.444 14.5386 18.5 14.2344 18.5 13.8426C18.5 13.4509 18.444 13.1466 18.375 12.9216C18.2082 12.3779 17.7042 12.1611 17.3095 12.1554C16.5604 12.1446 14.1839 12.1157 10 12.1126V9.88757Z" fill="#FF8C5A"/>
</svg>
