<svg width="24" height="25" viewBox="0 0 24 25" fill="none" xmlns="http://www.w3.org/2000/svg">
<path d="M16.2533 1.44439C15.912 1.19105 15.5219 1.19739 15.222 1.39358C14.9323 1.58313 14.75 1.93275 14.75 2.32865V22.0373C14.75 23.3624 16.1033 24.1592 17.3134 23.8263C17.9597 23.6485 18.4229 23.2571 18.6959 22.7397C18.9662 22.2274 19.0427 21.607 18.9519 20.9711L18.1679 15.4837C19.0542 15.2801 19.7432 15.018 20.2345 14.7899C20.9115 14.4755 21.2593 13.7765 21.2276 13.0628C20.955 6.9284 18.2431 2.92179 16.2533 1.44439Z" fill="black"/>
<path d="M4.45203 1.32568C3.63394 1.32568 2.91876 1.89443 2.78024 2.71355C2.54913 4.08026 2.22544 6.4702 2.25148 9.02595C2.26595 10.4459 3.21645 11.7223 4.70835 12.0567C4.92574 12.1054 5.1544 12.1505 5.3918 12.1893L4.47081 20.9616C4.33288 22.2755 5.15105 23.5959 6.5129 23.7854C6.6888 23.8099 6.857 23.8258 7.0002 23.8258C7.14345 23.8258 7.31165 23.8099 7.48755 23.7854C8.8494 23.5959 9.66755 22.2754 9.52965 20.9616L8.60865 12.1893C8.8461 12.1505 9.0748 12.1054 9.29225 12.0567C10.7841 11.7223 11.7345 10.446 11.749 9.0261C11.775 6.47 11.4508 4.07975 11.2194 2.71307C11.0807 1.89417 10.3656 1.32568 9.5477 1.32568H9.40205C9.3338 1.32568 9.2685 1.3536 9.2213 1.40296C9.17415 1.45233 9.14925 1.51883 9.15235 1.58703L9.37435 6.4716C9.39005 6.81645 9.1232 7.1087 8.7784 7.12435C8.43355 7.14005 8.1413 6.8732 8.12565 6.5284L7.9 1.56433C7.89395 1.43081 7.7839 1.32568 7.65025 1.32568H6.34975C6.2161 1.32568 6.10605 1.43081 6.1 1.56433L5.87435 6.5284C5.8587 6.8732 5.56645 7.14005 5.2216 7.12435C4.8768 7.1087 4.60997 6.81645 4.62565 6.4716L4.84767 1.58703C4.85077 1.51883 4.82585 1.45233 4.77868 1.40296C4.73151 1.3536 4.66621 1.32568 4.59793 1.32568H4.45203Z" fill="black"/>
</svg>
