<svg width="69" height="36" viewBox="0 0 69 36" fill="none" xmlns="http://www.w3.org/2000/svg">
<path d="M13.7448 27.6827C12.6522 26.6003 12.1058 25.2523 12.1058 23.6389C12.1058 22.0254 12.6522 20.6775 13.7448 19.595C14.8375 18.5126 16.2058 17.9714 17.8499 17.9714C19.494 17.9714 20.8623 18.5126 21.955 19.595C23.0476 20.6775 23.594 22.0254 23.594 23.6389C23.594 25.2523 23.0476 26.6003 21.955 27.6827C20.8623 28.7651 19.494 29.3064 17.8499 29.3064C16.2058 29.3064 14.8375 28.7651 13.7448 27.6827ZM15.0315 20.7592C14.3064 21.4944 13.9439 22.4543 13.9439 23.6389C13.9439 24.8234 14.3064 25.7833 15.0315 26.5186C15.7565 27.2538 16.696 27.6214 17.8499 27.6214C18.9936 27.6214 19.928 27.2538 20.653 26.5186C21.3882 25.7833 21.7559 24.8234 21.7559 23.6389C21.7559 22.4543 21.3882 21.4944 20.653 20.7592C19.928 20.0239 18.9936 19.6563 17.8499 19.6563C16.696 19.6563 15.7565 20.0239 15.0315 20.7592ZM23.6789 29L26.3595 18.2777H30.725L33.4821 29H31.644L29.3464 19.9627H27.6615L25.4404 29H23.6789ZM34.3234 29V18.2777H36.0849V25.4004L35.9318 26.779H36.0849L40.9099 18.2777H43.2842V29H41.5226V21.8774L41.6758 20.4988H41.5226L36.6976 29H34.3234ZM44.9631 29V18.2777H47.8734L50.7838 24.9409H51.1667L54.077 18.2777H56.9108V29H55.1493V21.4944L55.3024 20.0393H55.1493L52.3155 26.5492H49.5584L46.7246 20.0393H46.5714L46.7246 21.4944V29H44.9631ZM58.5945 29V18.2777H67.4021V29H65.6406V19.9627H60.356V29H58.5945Z" fill="white"/>
<g style="mix-blend-mode:multiply" opacity="0.2">
<path d="M29.9792 35.4955V31.8362H8.38284V16.4538L19.2608 5.57585L29.9792 16.2943L32.479 13.6206L19.2608 0.402344L0 19.6655L2.58556 22.2534L4.72591 20.1131V35.4955H29.9792Z" fill="#151515"/>
<path d="M30.0601 35.4145V31.7576H8.46379V16.3752L19.3417 5.49485L30.0601 16.2133L32.56 13.542L19.3417 0.32373L0.0785713 19.5845L2.66651 22.1724L4.80448 20.0321V35.4145H30.0601Z" fill="#111111"/>
<path d="M30.1387 35.3334V31.6765H8.54474V16.2941L19.4227 5.41618L30.1387 16.1322L32.6409 13.4609L19.4227 0.242676L0.159523 19.5058L2.74508 22.0914L4.88543 19.951V35.3334H30.1387Z" fill="#0D0D0D"/>
<path d="M30.2196 35.2529V31.596H8.62328V16.2135L19.5036 5.33561L30.2196 16.0516L32.7218 13.3804L19.5036 0.162109L0.240444 19.4252L2.826 22.0108L4.96635 19.8705V35.2529H30.2196Z" fill="#080808"/>
<path d="M30.3006 35.1742V31.5149H8.70423V16.1325L19.5822 5.25456L30.3006 15.973L32.8004 13.2993L19.5822 0.0810547L0.321396 19.3442L2.90696 21.9298L5.0473 19.7918V35.1742H30.3006Z" fill="#B1B1B1"/>
<path d="M30.3815 35.0931V31.4338H8.78518V16.0538L19.6631 5.1735L30.3815 15.8919L32.8814 13.2183L19.6631 0L0.399967 19.2631L2.98791 21.8511L5.12826 19.7107V35.0931H30.3815Z" fill="black"/>
</g>
<path d="M30.3815 35.0931V31.4338H8.78518V16.0538L19.6631 5.1735L30.3815 15.8919L32.8814 13.2183L19.6631 0L0.399967 19.2631L2.98791 21.8511L5.12826 19.7107V35.0931H30.3815Z" fill="white"/>
</svg>
