<svg width="24" height="24" viewBox="0 0 24 24" fill="none" xmlns="http://www.w3.org/2000/svg">
<g clip-path="url(#clip0_2_1741)">
<path d="M15.306 0.867205C14.3075 0.954125 13.8577 1.98773 14.4876 2.76732C14.9073 3.28682 15.4636 3.93553 16.1922 4.72039C14.887 6.166 14.0674 7.22135 13.6072 7.85595C13.2864 8.29845 13.241 8.85425 13.5895 9.27525C13.7296 9.4445 13.911 9.64495 14.1453 9.87785C14.3679 10.0991 14.5592 10.2718 14.7211 10.4066C15.1441 10.7584 15.6997 10.7059 16.1401 10.3763C16.7669 9.90705 17.8096 9.0803 19.2485 7.7857C20.0628 8.5464 20.7288 9.11885 21.257 9.5452C22.0287 10.1681 23.0416 9.72275 23.129 8.73495C23.3049 6.745 23.2628 4.50072 23.1658 2.65414C23.114 1.66908 22.3302 0.885205 21.3451 0.833405C19.5113 0.736965 17.2851 0.694925 15.306 0.867205Z" fill="black"/>
<path d="M8.69375 0.867205C9.69225 0.954125 10.142 1.98773 9.51215 2.76732C9.09245 3.28682 8.53615 3.93553 7.80755 4.72039C9.1127 6.166 9.93235 7.22135 10.3925 7.85595C10.7133 8.29845 10.7587 8.85425 10.4102 9.27525C10.2701 9.4445 10.0887 9.64495 9.85445 9.87785C9.63185 10.0991 9.4406 10.2718 9.2786 10.4066C8.85565 10.7584 8.3001 10.7059 7.85965 10.3763C7.2328 9.90705 6.19015 9.0803 4.75122 7.7857C3.9369 8.5464 3.27093 9.11885 2.74273 9.5452C1.97108 10.1681 0.958099 9.72275 0.870784 8.73495C0.694884 6.745 0.736894 4.50072 0.833954 2.65414C0.885729 1.66908 1.66955 0.885205 2.65461 0.833405C4.48846 0.736965 6.7146 0.694925 8.69375 0.867205Z" fill="black"/>
<path fill-rule="evenodd" clip-rule="evenodd" d="M8.69355 23.1323C9.69205 23.0454 10.1418 22.0118 9.51195 21.2322C9.09235 20.7129 8.53625 20.0644 7.80795 19.2798C9.1129 17.8345 9.9324 16.7793 10.3925 16.1448C10.7134 15.7023 10.7587 15.1465 10.4102 14.7255C10.2701 14.5562 10.0887 14.3558 9.85445 14.1229C9.63185 13.9016 9.4406 13.7289 9.2786 13.5942C8.85565 13.2424 8.3001 13.2947 7.85965 13.6244C7.2329 14.0936 6.1904 14.9202 4.75179 16.2145C3.93721 15.4535 3.27106 14.8809 2.74273 14.4544C1.97108 13.8316 0.958095 14.2769 0.87078 15.2647C0.694885 17.2546 0.736895 19.4988 0.83395 21.3454C0.885725 22.3305 1.66955 23.1143 2.65461 23.1661C4.48841 23.2626 6.7145 23.3046 8.69355 23.1323Z" fill="black"/>
<path d="M15.3065 23.1321C14.308 23.0452 13.8582 22.0116 14.4881 21.232C14.9077 20.7126 15.4638 20.0642 16.1921 19.2796C14.8871 17.8342 14.0676 16.779 13.6075 16.1445C13.2867 15.702 13.2413 15.1462 13.5898 14.7252C13.7299 14.556 13.9113 14.3555 14.1456 14.1226C14.3682 13.9014 14.5595 13.7286 14.7214 13.5939C15.1444 13.2421 15.7 13.2945 16.1404 13.6242C16.7672 14.0934 17.8096 14.92 19.2482 16.2143C20.0628 15.4533 20.729 14.8806 21.2573 14.4542C22.0289 13.8313 23.0419 14.2766 23.1293 15.2645C23.3051 17.2544 23.2631 19.4986 23.1661 21.3452C23.1143 22.3302 22.3305 23.1141 21.3454 23.1659C19.5116 23.2623 17.2856 23.3044 15.3065 23.1321Z" fill="black"/>
</g>
<defs>
<clipPath id="clip0_2_1741">
<rect width="24" height="24" fill="white"/>
</clipPath>
</defs>
</svg>
