<svg width="24" height="24" viewBox="0 0 24 24" fill="none" xmlns="http://www.w3.org/2000/svg">
<g clip-path="url(#clip0_3_1773)">
<path fill-rule="evenodd" clip-rule="evenodd" d="M1.35522 8.3503L2.2084 8.77505L3.12423 11.252C3.76828 12.9939 6.23195 12.9939 6.876 11.252L7.7918 8.77505L9.76945 7.79055C11.2477 7.05465 11.2477 4.94563 9.76945 4.20972L7.7918 3.22522L7.26235 1.79324C8.70225 1.12376 10.3075 0.75 12 0.75C13.6926 0.75 15.2979 1.12379 16.7379 1.79333L16.2084 3.22522L14.2308 4.20972C12.7525 4.94563 12.7525 7.05465 14.2308 7.79055L16.2084 8.77505L17.1243 11.252C17.7682 12.9939 20.2319 12.9939 20.876 11.252L21.7918 8.77505L22.6448 8.3504C23.0371 9.49485 23.25 10.7226 23.25 12C23.25 18.2132 18.2132 23.25 12 23.25C5.7868 23.25 0.75 18.2132 0.75 12C0.75 10.7225 0.962925 9.4948 1.35522 8.3503ZM6.4889 14.6018C6.8735 14.2625 7.44185 14.0964 8.00915 14.1981C9.07075 14.3884 10.4764 14.568 11.9998 14.568C13.5231 14.568 14.9288 14.3884 15.9904 14.1981C16.5577 14.0964 17.1261 14.2625 17.5107 14.6018C17.9023 14.9472 18.1052 15.4786 17.9018 16.0611C17.0501 18.4998 14.7297 20.2498 11.9998 20.2498C9.2699 20.2498 6.9494 18.4998 6.09775 16.0611C5.89435 15.4786 6.0973 14.9472 6.4889 14.6018Z" fill="black"/>
<path d="M18.531 1.2685C18.6921 0.833025 19.308 0.83303 19.469 1.2685L20.591 4.30308L23.1009 5.55255C23.4704 5.7365 23.4704 6.26375 23.1009 6.44775L20.591 7.6972L19.469 10.7317C19.308 11.1672 18.6921 11.1672 18.531 10.7317L17.409 7.6972L14.8991 6.44775C14.5296 6.26375 14.5296 5.7365 14.8991 5.55255L17.409 4.30308L18.531 1.2685Z" fill="black"/>
<path d="M5.46895 1.2685C5.30795 0.833025 4.69203 0.83303 4.53102 1.2685L3.409 4.30308L0.899126 5.55255C0.529556 5.7365 0.529556 6.26375 0.899126 6.44775L3.409 7.6972L4.53102 10.7317C4.69203 11.1672 5.30795 11.1672 5.46895 10.7317L6.591 7.6972L9.10085 6.44775C9.4704 6.26375 9.4704 5.7365 9.10085 5.55255L6.591 4.30308L5.46895 1.2685Z" fill="black"/>
</g>
<defs>
<clipPath id="clip0_3_1773">
<rect width="24" height="24" fill="white"/>
</clipPath>
</defs>
</svg>
