<svg width="24" height="24" viewBox="0 0 24 24" fill="none" xmlns="http://www.w3.org/2000/svg">
<path d="M11.9997 2.41699C7.5418 2.41699 3.96364 3.96441 1.27096 6.07355C0.60926 6.5918 0.476128 7.51095 0.882505 8.2221L1.56409 9.41485C2.11566 10.3801 3.39303 10.5749 4.27227 9.9518C6.3453 8.48265 8.98885 7.298 11.9997 7.298C15.0105 7.298 17.6539 8.48265 19.7269 9.9518C20.6062 10.5749 21.8836 10.3801 22.4352 9.41485L23.1168 8.2221C23.5231 7.51095 23.3899 6.5918 22.7283 6.07355C20.0356 3.96441 16.4575 2.41699 11.9997 2.41699Z" fill="black"/>
<path d="M11.98 17.2021C10.6324 17.2021 9.54021 18.2948 9.54041 19.6426C9.54061 20.9904 10.6331 22.0831 11.9807 22.0831C13.3283 22.0831 14.4205 20.9904 14.4203 19.6426C14.4201 18.2948 13.3276 17.2021 11.98 17.2021Z" fill="black"/>
<path d="M11.9998 10.083C9.24755 10.083 7.34005 10.8453 5.7496 12.0495C5.0449 12.583 4.95585 13.5632 5.4269 14.2698L6.09435 15.2709C6.6127 16.0484 7.67695 16.143 8.4215 15.6824C9.3544 15.1054 10.5924 14.6111 11.9998 14.6111C13.4072 14.6111 14.6452 15.1054 15.5781 15.6824C16.3226 16.143 17.3869 16.0484 17.9053 15.2709L18.5727 14.2698C19.0438 13.5632 18.9547 12.583 18.25 12.0495C16.6595 10.8453 14.7521 10.083 11.9998 10.083Z" fill="black"/>
</svg>
