<svg width="22" height="22" viewBox="0 0 22 22" fill="none" xmlns="http://www.w3.org/2000/svg">
<path d="M7.61239 6.46711C7.63711 8.10946 7.66296 10.4553 7.66296 13.0758C7.66296 16.5668 7.61704 19.5705 7.5892 21.0726C7.88628 21.1159 8.2011 21.1598 8.53155 21.2033C10.894 21.5147 14.0666 21.8104 17.2896 21.7422C18.7488 21.7113 20.1451 20.8903 20.6741 19.453C21.9912 15.8742 22.073 11.3076 21.9671 8.50297C21.8996 6.71362 20.3992 5.37355 18.6249 5.48153C17.5477 5.54712 16.3759 5.64524 15.0709 5.76557C15.0883 4.95391 15.0785 4.07364 15.0164 3.20283C14.9298 1.98919 14.2979 0.695037 12.976 0.295535C12.5063 0.153571 12.0308 0.0678639 11.6094 0.0160143C10.4693 -0.124239 9.53761 0.675433 9.23752 1.68318C8.85818 2.95715 8.25519 4.86819 7.61239 6.46711Z" fill="#FF8C5A"/>
<path fill-rule="evenodd" clip-rule="evenodd" d="M1.68061 21.8224C2.09871 21.9229 2.61497 22.0002 3.21349 22.0002C3.812 22.0002 4.32827 21.9229 4.74637 21.8224C5.82576 21.563 6.33986 20.563 6.36048 19.6538C6.38836 18.4263 6.42697 16.2806 6.42697 13.8197C6.42697 11.3587 6.38836 9.213 6.36048 7.98553C6.33986 7.0763 5.82576 6.07635 4.74637 5.81695C4.32827 5.71645 3.812 5.63916 3.21349 5.63916C2.61497 5.63916 2.09871 5.71645 1.68061 5.81695C0.601233 6.07635 0.0871053 7.0763 0.0664747 7.98553C0.0386261 9.213 0 11.3587 0 13.8197C0 16.2806 0.0386261 18.4263 0.0664747 19.6538C0.0871053 20.563 0.601233 21.563 1.68061 21.8224ZM4.20225 17.2902C4.20225 16.7425 3.75957 16.2986 3.21349 16.2986C2.66741 16.2986 2.22472 16.7425 2.22472 17.2902V18.2818C2.22472 18.8294 2.66741 19.2734 3.21349 19.2734C3.75957 19.2734 4.20225 18.8294 4.20225 18.2818V17.2902Z" fill="#FF8C5A"/>
</svg>
