<svg width="69" height="36" viewBox="0 0 69 36" fill="none" xmlns="http://www.w3.org/2000/svg">
<path d="M13.3448 27.6827C12.2522 26.6003 11.7059 25.2523 11.7059 23.6389C11.7059 22.0254 12.2522 20.6775 13.3448 19.595C14.4375 18.5126 15.8059 17.9714 17.4499 17.9714C19.094 17.9714 20.4624 18.5126 21.555 19.595C22.6477 20.6775 23.194 22.0254 23.194 23.6389C23.194 25.2523 22.6477 26.6003 21.555 27.6827C20.4624 28.7651 19.094 29.3064 17.4499 29.3064C15.8059 29.3064 14.4375 28.7651 13.3448 27.6827ZM14.6315 20.7592C13.9065 21.4944 13.544 22.4543 13.544 23.6389C13.544 24.8234 13.9065 25.7833 14.6315 26.5186C15.3565 27.2538 16.296 27.6214 17.4499 27.6214C18.5936 27.6214 19.528 27.2538 20.253 26.5186C20.9883 25.7833 21.3559 24.8234 21.3559 23.6389C21.3559 22.4543 20.9883 21.4944 20.253 20.7592C19.528 20.0239 18.5936 19.6563 17.4499 19.6563C16.296 19.6563 15.3565 20.0239 14.6315 20.7592ZM23.279 29L25.9595 18.2777H30.325L33.0822 29H31.2441L28.9465 19.9627H27.2615L25.0405 29H23.279ZM33.9234 29V18.2777H35.685V25.4004L35.5318 26.779H35.685L40.51 18.2777H42.8842V29H41.1227V21.8774L41.2759 20.4988H41.1227L36.2977 29H33.9234ZM44.5631 29V18.2777H47.4735L50.3838 24.9409H50.7667L53.6771 18.2777H56.5108V29H54.7493V21.4944L54.9025 20.0393H54.7493L51.9155 26.5492H49.1584L46.3247 20.0393H46.1715L46.3247 21.4944V29H44.5631ZM58.1945 29V18.2777H67.0021V29H65.2406V19.9627H59.9561V29H58.1945Z" fill="white"/>
<path d="M29.9815 35.0931V31.4338H8.38521V16.0538L19.2631 5.1735L29.9815 15.8919L32.4814 13.2183L19.2631 0L0 19.2631L2.58794 21.8511L4.72829 19.7107V35.0931H29.9815Z" fill="white"/>
</svg>
