<svg width="24" height="24" viewBox="0 0 24 24" fill="none" xmlns="http://www.w3.org/2000/svg">
<path fill-rule="evenodd" clip-rule="evenodd" d="M20.5714 12C20.5714 16.7339 16.7339 20.5714 12 20.5714C7.26613 20.5714 3.42857 16.7339 3.42857 12C3.42857 7.26613 7.26613 3.42857 12 3.42857C16.7339 3.42857 20.5714 7.26613 20.5714 12ZM24 12C24 18.6274 18.6274 24 12 24C5.37258 24 0 18.6274 0 12C0 5.37258 5.37258 0 12 0C18.6274 0 24 5.37258 24 12ZM11.1563 13.4354H13.0755C13.8949 13.4354 14.5969 13.3072 15.1815 13.0508C15.7709 12.7944 16.2213 12.4304 16.5328 11.9588C16.8443 11.4872 17 10.9286 17 10.283C17 9.64652 16.8443 9.08104 16.5328 8.58654C16.2213 8.09203 15.7709 7.70513 15.1815 7.42582C14.5969 7.14194 13.8949 7 13.0755 7H9V17H11.1563V13.4354ZM11.1563 11.8283V8.61401H13.0755C13.4876 8.61401 13.823 8.69185 14.0818 8.84753C14.3405 9.00321 14.5298 9.20925 14.6496 9.46566C14.7694 9.72207 14.8293 9.99908 14.8293 10.2967C14.8293 10.5897 14.7694 10.853 14.6496 11.0865C14.5298 11.3201 14.3405 11.5032 14.0818 11.636C13.823 11.7642 13.4876 11.8283 13.0755 11.8283H11.1563Z" fill="black"/>
</svg>
