<svg width="24" height="24" viewBox="0 0 24 24" fill="none" xmlns="http://www.w3.org/2000/svg">
<g clip-path="url(#clip0_3_1827)">
<path fill-rule="evenodd" clip-rule="evenodd" d="M12.0003 0.75C8.29265 0.75 5.6959 0.864225 4.0637 0.972985C2.43614 1.08144 1.13052 2.30137 0.982101 3.9518C0.860156 5.3079 0.744141 7.3259 0.744141 10.096C0.744141 12.8661 0.860156 14.8841 0.982101 16.2401C1.13052 17.8906 2.43614 19.1105 4.0637 19.219C4.81597 19.2691 5.7731 19.3203 6.9494 19.3611V21.4597C6.9494 22.9702 8.7347 23.7712 9.863 22.7668L13.6063 19.4345C16.4711 19.4075 18.5515 19.3113 19.937 19.219C21.5645 19.1105 22.8701 17.8906 23.0186 16.2402C23.1405 14.8841 23.2565 12.8661 23.2565 10.096C23.2565 7.3259 23.1405 5.3079 23.0186 3.9518C22.8701 2.30137 21.5645 1.08144 19.937 0.97299C18.3047 0.864225 15.708 0.75 12.0003 0.75ZM20.5 6.66405C20.5 6.8997 20.4131 7.24125 20.2773 7.5592C20.0475 8.09725 19.4264 8.09695 18.8714 7.91155C18.4284 7.76355 17.9662 7.7169 17.4486 7.7778C16.5907 7.8787 15.4334 8.65195 15.4334 10.0078C15.4334 11.1111 16.0935 12.0778 17.6225 12.2222C18.0486 12.2625 18.4353 12.203 18.8269 12.0712C19.3967 11.8795 20.0437 11.9311 20.2659 12.4897C20.4944 13.0644 20.5815 13.7559 20.3419 14.1291C19.8309 14.9249 18.451 15 17.6225 15C14.6001 15 12.5 13.0545 12.5 10.0078C12.5 7.13515 14.5382 5 17.4486 5C18.4855 5 20.5 5.24275 20.5 6.66405ZM11.2774 7.5592C11.4132 7.24125 11.5 6.8997 11.5 6.66405C11.5 5.24275 9.48545 5 8.4486 5C5.53815 5 3.5 7.13515 3.5 10.0078C3.5 13.0545 5.60015 15 8.62255 15C9.45105 15 10.8309 14.9249 11.3419 14.1291C11.5815 13.7559 11.4944 13.0644 11.2659 12.4897C11.0438 11.9311 10.3967 11.8795 9.8269 12.0712C9.43525 12.203 9.0486 12.2625 8.62255 12.2222C7.09355 12.0778 6.43335 11.1111 6.43335 10.0078C6.43335 8.65195 7.59065 7.8787 8.4486 7.7778C8.96615 7.7169 9.4284 7.76355 9.8714 7.91155C10.4264 8.09695 11.0475 8.09725 11.2774 7.5592Z" fill="black"/>
</g>
<defs>
<clipPath id="clip0_3_1827">
<rect width="24" height="24" fill="white"/>
</clipPath>
</defs>
</svg>
