<svg width="23" height="23" viewBox="0 0 23 23" fill="none" xmlns="http://www.w3.org/2000/svg">
<path d="M2.85969 0.998179C1.69433 0.602975 0.621458 1.67566 1.06694 2.80535C2.13659 5.51793 3.43752 8.20808 4.05104 9.44184C4.30443 9.95133 4.75071 10.34 5.29118 10.5357L9.09826 11.9145L5.29118 13.2934C4.75071 13.4891 4.30443 13.8777 4.05104 14.3873C3.43752 15.621 2.13659 18.3112 1.06694 21.0238C0.621458 22.1534 1.69433 23.2261 2.85969 22.8309C6.77559 21.5029 15.0368 18.366 22.1486 13.445C23.2356 12.6927 23.2356 11.1363 22.1486 10.3841C15.0368 5.46306 6.77554 2.32616 2.85969 0.998179Z" fill="#FF8C5A"/>
</svg>
