<svg width="24" height="24" viewBox="0 0 24 24" fill="none" xmlns="http://www.w3.org/2000/svg">
<path d="M10.6203 4.29795C10.1408 4.23552 9.62185 4.2412 9.14875 4.30859C8.10725 4.45697 7.4391 5.3599 7.37955 6.3639C7.3157 7.4396 7.2511 9.17065 7.2494 11.7844L5.8998 13.0462C5.17075 13.7279 4.77289 14.7192 4.93397 15.7239C5.2668 17.7997 5.8428 19.3093 6.37335 20.3394C7.04255 21.6386 8.35015 22.3713 9.7615 22.5531C11.6995 22.8028 13.6616 22.8095 15.6013 22.5902C17.2417 22.4047 18.6004 21.2822 19.1125 19.7157C19.6508 18.0691 19.9355 16.6302 20.0855 15.5307C20.2177 14.5619 19.9563 13.7738 19.4452 13.1394C18.941 12.5136 18.2032 12.0486 17.3945 11.6914C16.0591 11.1014 14.4623 10.7786 13.2567 10.5349C13.0823 10.4996 12.916 10.466 12.7599 10.4335C12.7424 9.4014 12.6024 7.6777 12.4901 6.4312C12.3972 5.4002 11.7086 4.43965 10.6203 4.29795Z" fill="black"/>
<path fill-rule="evenodd" clip-rule="evenodd" d="M10 2.5C7.5147 2.5 5.5 4.51472 5.5 7C5.5 7.5523 5.0523 8 4.5 8C3.94771 8 3.5 7.5523 3.5 7C3.5 3.41015 6.41015 0.5 10 0.5C13.5898 0.5 16.5 3.41015 16.5 7C16.5 7.5523 16.0523 8 15.5 8C14.9477 8 14.5 7.5523 14.5 7C14.5 4.51472 12.4853 2.5 10 2.5Z" fill="black"/>
</svg>
