<svg width="159" height="82" viewBox="0 0 159 82" fill="none" xmlns="http://www.w3.org/2000/svg">
<path d="M137.832 68.6004V43.5463H158.5V68.6004H154.366V47.4834H141.965V68.6004H137.832Z" fill="#FF8C5A"/>
<path d="M105.844 68.6004V43.5463H112.673L119.503 59.1156H120.401L127.231 43.5463H133.881V68.6004H129.747V51.0626L130.106 47.6624H129.747L123.097 62.8737H116.627L109.977 47.6624H109.618L109.977 51.0626V68.6004H105.844Z" fill="#FF8C5A"/>
<path d="M80.8761 68.6004V43.5463H85.0097V60.1894L84.6503 63.4106H85.0097L96.3324 43.5463H101.904V68.6004H97.7701V51.9573L98.1296 48.7361H97.7701L86.4475 68.6004H80.8761Z" fill="#FF8C5A"/>
<path d="M55.8973 68.6004L62.1877 43.5463H72.4319L78.902 68.6004H74.5886L69.1969 47.4834H65.243L60.031 68.6004H55.8973Z" fill="#FF8C5A"/>
<path d="M32.5854 65.5223C30.0213 62.9931 28.7393 59.8434 28.7393 56.0734C28.7393 52.3033 30.0213 49.1537 32.5854 46.6244C35.1495 44.0951 38.3605 42.8305 42.2186 42.8305C46.0767 42.8305 49.2878 44.0951 51.8518 46.6244C54.4159 49.1537 55.6979 52.3033 55.6979 56.0734C55.6979 59.8434 54.4159 62.9931 51.8518 65.5223C49.2878 68.0516 46.0767 69.3162 42.2186 69.3162C38.3605 69.3162 35.1495 68.0516 32.5854 65.5223ZM35.6048 49.3446C33.9034 51.0625 33.0527 53.3055 33.0527 56.0734C33.0527 58.8412 33.9034 61.0842 35.6048 62.8022C37.3062 64.5202 39.5108 65.3792 42.2186 65.3792C44.9025 65.3792 47.0951 64.5202 48.7965 62.8022C50.5219 61.0842 51.3845 58.8412 51.3845 56.0734C51.3845 53.3055 50.5219 51.0625 48.7965 49.3446C47.0951 47.6266 44.9025 46.7676 42.2186 46.7676C39.5108 46.7676 37.3062 47.6266 35.6048 49.3446Z" fill="#FF8C5A"/>
<path d="M70.8561 82V73.4495H20.1771V37.5119L45.7038 12.0886L70.8561 37.1337L76.7223 30.8863L45.7038 0L0.5 45.011L6.57298 51.0581L11.5956 46.0569V82H70.8561Z" fill="#FF8C5A"/>
</svg>
